<?xml version="1.0" standalone="no"?>
<!DOCTYPE svg PUBLIC "-//W3C//DTD SVG 20010904//EN"
 "http://www.w3.org/TR/2001/REC-SVG-20010904/DTD/svg10.dtd">
<svg version="1.0" xmlns="http://www.w3.org/2000/svg"
 width="800.000000pt" height="800.000000pt" viewBox="0 0 800.000000 800.000000"
 preserveAspectRatio="xMidYMid meet">
<metadata>
Created by potrace 1.14, written by Peter Selinger 2001-2017
</metadata>
<g transform="translate(0.000000,800.000000) scale(0.100000,-0.100000)"
fill="#000000" stroke="none">
<path d="M1 7996 c9 -9 110 -13 115 -5 3 5 -23 9 -57 9 -34 0 -60 -2 -58 -4z"/>
<path d="M390 7990 c0 -5 5 -10 11 -10 5 0 7 5 4 10 -3 6 -8 10 -11 10 -2 0
-4 -4 -4 -10z"/>
<path d="M700 7965 l0 -35 -51 0 c-43 0 -49 -2 -40 -14 6 -7 8 -22 4 -31 -4
-12 -3 -16 5 -11 6 3 13 2 16 -3 3 -5 34 -12 68 -16 35 -4 92 -13 128 -21 36
-8 112 -14 170 -14 58 -1 138 -5 179 -9 78 -10 114 -5 89 10 -11 7 -11 12 0
30 7 11 11 23 8 26 -3 3 -52 8 -109 10 -102 4 -103 4 -115 -21 -10 -22 -16
-24 -69 -22 -98 5 -97 4 -83 21 12 15 6 35 -11 35 -5 0 -14 -11 -19 -25 -5
-14 -16 -25 -24 -25 -11 0 -13 8 -9 35 l6 35 -41 0 c-42 0 -52 10 -52 56 0 19
-5 24 -25 24 -22 0 -25 -4 -25 -35z"/>
<path d="M850 7971 c0 -48 22 -61 105 -61 40 0 80 -3 89 -6 13 -5 16 1 16 29
0 66 -2 67 -111 67 l-99 0 0 -29z"/>
<path d="M1290 7981 c0 -11 5 -32 10 -47 l11 -28 20 21 c19 19 23 19 61 6 22
-7 53 -20 69 -29 l29 -15 0 33 c0 77 -2 78 -106 78 -86 0 -94 -2 -94 -19z"/>
<path d="M1705 7943 c11 -89 15 -93 95 -95 39 -1 78 -2 88 -2 15 -1 17 7 13
59 -5 94 -7 95 -113 95 l-90 0 7 -57z"/>
<path d="M2110 7984 c0 -9 5 -45 12 -80 11 -63 12 -64 30 -44 18 19 38 18 67
-4 16 -12 84 -37 89 -32 2 2 -1 39 -7 81 -6 42 -11 81 -11 86 0 5 -40 9 -90 9
-77 0 -90 -2 -90 -16z"/>
<path d="M2485 7968 c18 -108 25 -171 20 -176 -3 -3 -46 -6 -95 -5 -69 1 -90
-2 -90 -12 0 -7 -6 -15 -12 -18 -28 -10 7 -22 72 -25 63 -4 72 -2 106 24 33
26 44 29 98 26 74 -4 96 -10 96 -25 0 -7 -9 -18 -20 -25 -35 -21 -22 -29 58
-37 42 -4 90 -9 105 -11 22 -2 26 0 19 9 -7 8 -6 18 4 31 21 30 17 38 -16 31
-16 -4 -54 -3 -83 0 l-54 7 -13 119 -12 119 -95 0 -94 0 6 -32z"/>
<path d="M2816 7948 c3 -29 8 -69 11 -88 5 -33 6 -34 16 -12 7 15 7 29 0 45
-6 13 -10 42 -9 65 2 28 -2 42 -10 42 -10 0 -12 -14 -8 -52z"/>
<path d="M2855 7948 c7 -64 26 -160 31 -170 3 -4 16 -3 30 2 18 7 35 5 62 -7
83 -38 76 -45 68 59 -4 51 -9 110 -13 131 l-6 37 -89 0 -90 0 7 -52z"/>
<path d="M3160 7975 c0 -56 23 -225 31 -225 5 0 9 -5 9 -11 0 -5 -4 -7 -10 -4
-5 3 -10 1 -10 -5 0 -8 -21 -11 -65 -8 -56 3 -65 1 -65 -14 0 -9 -7 -21 -16
-26 -14 -8 -13 -10 7 -15 13 -3 56 -8 94 -12 39 -3 93 -10 120 -15 28 -5 102
-11 167 -15 110 -5 116 -5 111 13 -2 10 2 24 11 31 11 10 13 19 5 38 -14 38 5
53 29 23 16 -20 20 -21 40 -9 20 12 27 11 60 -7 20 -12 44 -34 52 -48 14 -25
14 -28 -10 -46 l-25 -20 25 -1 c14 0 34 -2 45 -5 11 -2 31 -5 45 -6 23 -1 25
-5 25 -42 1 -23 2 -45 4 -51 2 -5 3 -29 2 -51 -1 -36 -5 -43 -31 -54 -32 -13
-48 -46 -32 -62 8 -8 21 -6 45 6 19 9 53 16 76 16 23 0 41 5 41 10 0 6 -10 10
-23 10 -41 0 -54 20 -61 95 -5 66 -4 71 22 98 l27 29 -27 -7 c-36 -9 -35 0 4
36 30 29 33 30 100 23 37 -4 68 -11 68 -16 0 -5 -4 -7 -9 -3 -10 6 -41 -21
-41 -35 0 -5 30 -11 68 -15 37 -3 78 -8 90 -11 16 -3 21 -1 17 6 -4 6 1 20 10
30 9 10 14 23 11 28 -3 6 -3 17 0 26 5 14 8 14 29 0 19 -13 27 -13 44 -3 17
11 23 10 39 -4 10 -9 24 -17 31 -17 6 0 16 -12 22 -26 7 -21 6 -31 -5 -43 -14
-16 -2 -18 157 -35 94 -10 192 -20 216 -23 40 -6 43 -4 37 14 -7 21 32 63 59
63 8 0 24 5 34 11 14 10 24 7 50 -12 27 -20 32 -29 29 -59 l-3 -35 60 -7 c33
-4 89 -9 125 -12 72 -6 139 -14 185 -23 28 -5 29 -4 11 10 -19 14 -19 15 5 45
13 17 32 31 42 31 10 1 27 6 38 11 16 9 25 6 49 -19 31 -31 38 -59 18 -79 -17
-17 8 -44 30 -32 31 16 82 29 82 20 0 -14 31 -20 122 -25 46 -2 91 -5 98 -7 8
-2 16 6 18 17 7 34 41 62 83 68 33 4 45 1 65 -18 14 -13 23 -29 19 -35 -14
-23 5 -45 39 -46 21 0 33 3 30 10 -7 18 76 37 116 27 30 -7 32 -9 15 -15 -11
-4 -30 -11 -41 -16 -12 -5 -31 -6 -43 -3 -26 7 -27 -5 -3 -24 15 -13 8 -14
-59 -8 l-76 6 2 -36 c3 -44 15 -59 15 -19 0 22 5 30 20 31 11 1 22 -6 25 -18
6 -19 30 -26 39 -11 3 5 19 9 35 10 25 0 30 -4 34 -26 4 -26 4 -26 6 3 1 23 6
31 21 32 20 2 24 -9 20 -57 -3 -41 -16 -56 -60 -69 -30 -9 -40 -17 -38 -29 3
-12 11 -16 28 -14 14 2 62 3 108 2 45 0 82 3 82 8 0 6 -7 9 -16 8 -9 0 -21 7
-27 16 -15 22 15 47 56 48 20 0 27 5 27 21 0 11 -4 17 -10 14 -6 -4 -21 0 -34
9 -18 11 -22 21 -18 43 4 24 3 26 -9 16 -9 -7 -20 -8 -29 -3 -11 7 -8 10 13
15 15 4 27 13 27 19 0 22 48 59 66 52 9 -3 23 -1 31 6 11 9 19 6 39 -16 14
-15 23 -33 20 -41 -3 -8 -1 -17 5 -20 5 -4 7 -11 4 -16 -4 -5 -1 -9 4 -9 6 0
11 -8 11 -17 0 -15 -2 -16 -10 -3 -8 12 -10 10 -10 -8 0 -13 4 -20 10 -17 6 3
10 -1 10 -9 0 -9 -3 -15 -7 -14 -5 0 -16 -2 -26 -7 -10 -4 -23 -2 -32 5 -12
10 -15 9 -15 -7 0 -19 31 -26 46 -10 4 4 14 7 23 7 13 0 13 -2 3 -9 -11 -6 -9
-9 7 -14 14 -3 22 1 26 14 8 24 31 25 44 2 9 -16 11 -15 11 7 1 14 4 19 7 13
2 -7 11 -13 19 -13 8 0 14 -9 14 -20 0 -15 7 -20 25 -20 18 0 25 5 25 20 0 11
5 20 10 20 6 0 10 -4 10 -10 0 -5 7 -10 15 -10 8 0 15 5 15 11 0 7 7 17 16 24
9 6 17 25 18 43 2 40 40 81 75 80 14 -1 33 2 42 6 13 6 20 -2 31 -36 14 -42
16 -43 69 -52 43 -7 65 -5 107 9 l52 18 0 334 0 333 -926 0 -927 0 7 -76 c3
-43 10 -82 16 -89 5 -6 12 -80 16 -164 l7 -153 -24 4 c-23 3 -24 7 -31 103 -4
55 -5 162 -1 238 l6 137 -131 0 -131 0 6 -57 c3 -32 10 -63 15 -70 10 -12 28
-300 21 -320 -7 -17 -38 -16 -52 1 -8 10 -12 82 -13 230 l-2 216 -124 0 -125
0 6 -37 c4 -21 11 -58 16 -83 5 -25 12 -105 16 -177 l8 -133 -32 0 c-17 0 -34
6 -36 13 -8 24 -21 312 -15 327 4 8 5 32 3 53 l-5 37 -124 0 c-68 0 -124 -1
-124 -3 0 -1 5 -18 11 -37 12 -40 38 -328 31 -348 -3 -8 -18 -12 -41 -10 l-36
3 -11 160 c-6 88 -9 177 -6 198 l5 37 -127 0 c-118 0 -126 -1 -117 -17 14 -28
44 -334 33 -345 -5 -5 -27 -8 -48 -6 l-39 3 -8 105 c-4 58 -8 140 -10 182 l-2
78 -139 0 -139 0 8 -107 c4 -60 8 -135 9 -168 1 -54 -1 -60 -20 -63 -21 -3
-22 2 -28 100 -4 57 -9 133 -12 171 l-6 67 -114 0 -113 0 4 -27 c2 -16 9 -80
16 -143 7 -63 17 -118 22 -122 16 -10 -34 -20 -84 -16 l-44 3 -12 135 c-6 74
-12 143 -12 153 -1 15 -13 17 -111 17 l-110 0 0 -25z m708 -135 c10 0 28 -39
20 -43 -1 -1 -13 -8 -26 -15 -20 -11 -23 -10 -33 15 -5 15 -7 39 -4 53 6 23 8
24 19 7 7 -9 18 -17 24 -17z m1650 -37 c5 -10 12 -77 16 -148 5 -101 3 -135
-7 -149 -25 -34 -35 3 -37 149 -2 77 -2 146 -1 153 2 18 19 15 29 -5z m253
-50 c6 -16 8 -51 4 -83 -3 -30 -6 -86 -5 -125 1 -44 -2 -66 -8 -60 -14 15 -26
295 -12 295 6 0 15 -12 21 -27z m-2554 -5 c-3 -8 -6 -5 -6 6 -1 11 2 17 5 13
3 -3 4 -12 1 -19z m131 -38 c22 0 31 -4 26 -11 -4 -7 -22 -9 -50 -4 -35 5 -45
3 -50 -9 -4 -10 -19 -16 -41 -16 l-35 0 23 25 c20 21 30 25 59 21 19 -3 50 -6
68 -6z m2370 -247 c-10 -2 -26 -2 -35 0 -10 3 -2 5 17 5 19 0 27 -2 18 -5z
m447 -113 c8 -13 -15 -13 -35 0 -12 8 -11 10 7 10 12 0 25 -4 28 -10z m92 -67
c-3 -10 -5 -4 -5 12 0 17 2 24 5 18 2 -7 2 -21 0 -30z m417 21 c21 -8 21 -30
0 -38 -21 -8 -34 1 -34 25 0 20 8 23 34 13z"/>
<path d="M123 7936 l-11 -35 42 -5 c90 -11 195 -15 199 -8 2 4 7 19 11 34 7
29 25 24 -172 44 l-58 6 -11 -36z"/>
<path d="M7 7903 c7 -2 19 -2 26 0 6 3 1 5 -13 5 -14 0 -19 -2 -13 -5z"/>
<path d="M1507 7854 c-3 -3 -3 -12 0 -20 3 -8 0 -14 -6 -14 -6 0 -11 -4 -11
-9 0 -13 84 -30 185 -37 61 -5 85 -4 85 5 0 6 -15 11 -35 11 -38 0 -44 10 -20
30 9 7 12 17 7 22 -9 9 -197 20 -205 12z"/>
<path d="M755 7822 c-9 -6 -12 -83 -7 -160 2 -20 4 -21 22 -10 17 11 19 20 15
68 -7 74 -18 111 -30 102z"/>
<path d="M1885 7798 c-9 -15 -13 -28 -10 -28 4 0 -14 -20 -39 -45 -29 -28 -46
-53 -46 -67 1 -23 1 -23 15 -3 8 11 23 29 33 40 11 11 25 31 32 44 12 23 14
24 111 18 70 -4 99 -3 99 5 0 6 7 20 16 30 22 23 14 26 -103 30 -91 4 -91 4
-108 -24z"/>
<path d="M0 7615 c0 -39 9 -42 71 -24 40 13 58 37 37 51 -7 4 -34 8 -60 8
l-48 0 0 -35z"/>
<path d="M255 7624 c-41 -41 24 -72 108 -50 64 16 77 42 25 50 -105 16 -117
16 -133 0z"/>
<path d="M147 7623 c-13 -12 -7 -23 13 -23 13 0 18 5 14 15 -7 16 -17 19 -27
8z"/>
<path d="M3955 7620 c-3 -5 -16 -10 -28 -10 -18 0 -19 -2 -7 -10 8 -5 28 -10
44 -10 23 0 26 3 17 14 -10 11 -8 15 6 19 15 4 14 5 -4 6 -12 0 -25 -3 -28 -9z"/>
<path d="M558 7598 c-37 -37 -24 -48 60 -48 109 1 220 32 164 47 -12 3 -22 8
-22 12 0 3 -42 6 -92 6 -75 0 -96 -3 -110 -17z"/>
<path d="M445 7601 c-6 -11 9 -23 19 -14 9 9 7 23 -3 23 -6 0 -12 -4 -16 -9z"/>
<path d="M940 7593 c-20 -8 -30 -23 -30 -47 0 -15 6 -17 43 -13 78 9 141 40
105 52 -27 8 -104 13 -118 8z"/>
<path d="M815 7580 c-3 -5 3 -10 15 -10 12 0 18 5 15 10 -3 6 -10 10 -15 10
-5 0 -12 -4 -15 -10z"/>
<path d="M1205 7564 c-25 -25 -15 -49 23 -52 17 -2 32 1 32 6 0 10 39 28 75
35 17 3 16 5 -8 15 -41 17 -103 15 -122 -4z"/>
<path d="M1482 7548 c-7 -7 -12 -20 -12 -30 0 -23 46 -24 74 -3 11 8 32 15 48
15 30 0 38 14 12 24 -27 10 -110 6 -122 -6z"/>
<path d="M3775 7548 c-3 -7 -1 -26 4 -43 9 -29 9 -29 10 13 1 41 -5 54 -14 30z"/>
<path d="M1741 7524 c-19 -42 -7 -47 103 -41 108 5 139 13 133 31 -4 12 -49
21 -153 29 -69 5 -72 5 -83 -19z"/>
<path d="M2099 7499 c-6 -12 -7 -25 -2 -29 9 -9 133 10 133 20 0 12 -51 30
-85 30 -25 0 -37 -6 -46 -21z"/>
<path d="M1990 7501 c0 -9 41 -23 48 -16 2 2 1 8 -3 14 -8 13 -45 15 -45 2z"/>
<path d="M0 7416 c0 -46 4 -86 8 -88 5 -1 17 -29 28 -62 10 -32 23 -58 28 -58
6 0 18 22 29 49 15 39 17 58 10 103 -7 48 -11 55 -31 54 -12 0 -22 3 -22 8 0
4 -7 8 -15 8 -24 0 -29 29 -10 50 17 19 17 20 -3 20 -21 0 -22 -5 -22 -84z"/>
<path d="M2350 7480 c-6 -11 -8 -25 -5 -30 8 -13 97 -1 114 16 19 18 15 20
-46 28 -46 6 -53 4 -63 -14z"/>
<path d="M3709 7483 c0 -10 -3 -13 -5 -6 -7 17 -64 -17 -64 -39 0 -10 -13 -21
-34 -28 -33 -10 -51 -31 -39 -44 3 -3 13 -1 23 4 10 5 32 8 49 5 32 -4 32 -3
17 20 -15 23 -15 26 6 45 12 11 30 20 40 20 11 0 18 7 18 20 0 25 -10 27 -11
3z"/>
<path d="M2255 7480 c3 -5 13 -10 21 -10 8 0 14 5 14 10 0 6 -9 10 -21 10 -11
0 -17 -4 -14 -10z"/>
<path d="M4616 7473 c-8 -20 -7 -38 1 -30 3 4 12 2 18 -3 8 -7 18 -4 30 10 10
11 24 20 31 20 7 0 15 4 18 9 3 5 -16 9 -43 9 -35 0 -51 -5 -55 -15z"/>
<path d="M266 7453 c7 -16 14 -34 14 -41 0 -7 11 -37 24 -65 21 -47 30 -71 51
-132 11 -34 37 51 36 119 -1 59 -11 79 -37 69 -7 -2 -22 1 -34 7 -17 9 -20 17
-15 41 6 27 5 29 -24 29 -29 0 -30 0 -15 -27z"/>
<path d="M2597 7462 c-25 -27 -21 -32 26 -32 47 0 84 20 73 38 -12 19 -81 14
-99 -6z"/>
<path d="M550 7465 c0 -11 62 -161 70 -169 5 -5 6 -14 4 -20 -3 -7 2 -29 11
-49 12 -28 21 -37 39 -37 14 0 26 -5 28 -11 2 -7 13 1 23 17 36 53 21 211 -18
187 -11 -6 -67 17 -67 28 0 5 9 18 19 28 19 19 19 19 -2 25 -26 7 -107 8 -107
1z m137 -241 c-9 -9 -28 6 -21 18 4 6 10 6 17 -1 6 -6 8 -13 4 -17z"/>
<path d="M2505 7461 c-7 -12 12 -24 25 -16 11 7 4 25 -10 25 -5 0 -11 -4 -15
-9z"/>
<path d="M2748 7449 c-10 -6 -18 -14 -18 -19 0 -14 37 -12 46 1 10 17 -9 29
-28 18z"/>
<path d="M2831 7439 c-12 -20 -11 -24 5 -36 22 -16 25 -16 60 2 16 8 46 15 66
15 35 0 57 13 40 24 -4 3 -42 8 -83 11 -70 6 -75 6 -88 -16z"/>
<path d="M4549 7437 c-15 -12 -29 -32 -32 -44 -6 -27 -7 -27 43 -6 33 15 40
23 40 45 0 34 -16 35 -51 5z"/>
<path d="M928 7443 c7 -3 16 -2 19 1 4 3 -2 6 -13 5 -11 0 -14 -3 -6 -6z"/>
<path d="M3126 7425 c-23 -23 -20 -38 7 -32 12 3 39 9 60 12 40 8 51 25 15 25
-13 0 -32 3 -44 6 -13 3 -28 -1 -38 -11z"/>
<path d="M1411 7385 l1 -50 8 40 c5 22 4 44 -1 50 -5 5 -9 -11 -8 -40z"/>
<path d="M3040 7420 c0 -5 7 -10 15 -10 8 0 15 5 15 10 0 6 -7 10 -15 10 -8 0
-15 -4 -15 -10z"/>
<path d="M3351 7401 c-11 -20 -9 -21 31 -21 43 0 78 13 66 25 -3 4 -24 9 -46
12 -34 5 -42 2 -51 -16z"/>
<path d="M1674 7370 c-1 -22 3 -40 8 -40 4 0 8 18 8 40 0 22 -3 40 -8 40 -4 0
-8 -18 -8 -40z"/>
<path d="M1750 7403 c0 -5 6 -15 13 -23 11 -14 14 -14 29 1 15 16 15 18 -5 23
-29 8 -37 7 -37 -1z"/>
<path d="M3260 7401 c0 -11 26 -22 34 -14 12 12 5 23 -14 23 -11 0 -20 -4 -20
-9z"/>
<path d="M1986 7392 c15 -10 26 -60 14 -67 -15 -9 14 -65 34 -65 11 0 6 50 -6
70 -10 15 -9 22 5 38 21 23 13 32 -27 32 -17 0 -26 -4 -20 -8z"/>
<path d="M3484 7389 c-3 -6 0 -15 7 -20 23 -14 30 -10 19 11 -12 23 -16 24
-26 9z"/>
<path d="M2240 7355 c0 -30 7 -31 38 -6 29 25 28 31 -8 31 -25 0 -30 -4 -30
-25z"/>
<path d="M3693 7372 c-9 -6 -7 -12 7 -25 25 -21 29 -21 25 1 -2 9 -4 20 -4 25
-1 9 -13 9 -28 -1z"/>
<path d="M5310 7350 l0 -29 29 17 c26 15 27 18 13 29 -28 21 -42 15 -42 -17z"/>
<path d="M960 7363 c1 -4 10 -26 20 -48 l20 -40 -2 45 c-2 34 -7 46 -20 48
-10 2 -18 0 -18 -5z"/>
<path d="M1068 7364 c-3 -3 -3 -14 -1 -25 5 -16 8 -18 14 -7 16 25 6 51 -13
32z"/>
<path d="M1331 7357 c-6 -8 -7 -24 -2 -43 l8 -29 12 28 c6 16 11 32 11 37 0
16 -18 20 -29 7z"/>
<path d="M2498 7362 c-26 -3 -27 -6 -24 -50 4 -44 6 -47 35 -50 35 -4 43 15 9
20 -32 4 -31 48 0 64 28 14 18 21 -20 16z"/>
<path d="M3978 7362 c-22 -4 -22 -3 -3 -38 25 -48 20 -57 -25 -50 -35 5 -40 4
-40 -14 0 -17 5 -19 33 -13 47 8 59 24 55 74 -2 36 -6 44 -20 41z"/>
<path d="M1240 7348 c1 -7 7 -24 15 -38 l15 -25 -2 34 c-3 32 -28 59 -28 29z"/>
<path d="M1595 7348 c-7 -22 -11 -98 -5 -98 10 0 29 38 35 74 6 29 4 36 -9 36
-9 0 -18 -6 -21 -12z"/>
<path d="M4050 7350 c0 -5 24 -10 54 -10 30 0 58 -4 61 -10 8 -13 35 -13 35 0
0 12 -66 30 -112 30 -21 0 -38 -4 -38 -10z"/>
<path d="M5255 7350 c-3 -5 -1 -10 4 -10 6 0 11 5 11 10 0 6 -2 10 -4 10 -3 0
-8 -4 -11 -10z"/>
<path d="M1932 7338 c-7 -7 -12 -20 -12 -31 0 -10 -5 -27 -10 -38 -9 -16 -7
-19 9 -19 14 0 23 9 27 28 3 15 7 32 9 38 6 20 -10 35 -23 22z"/>
<path d="M2713 7335 c-3 -10 -6 -30 -7 -46 -1 -21 -6 -29 -18 -29 -10 0 -18 7
-18 15 0 20 -9 19 -34 -4 -17 -15 -40 -20 -116 -23 l-95 -3 3 33 c1 17 -2 32
-7 32 -17 0 -29 -33 -21 -56 8 -21 7 -22 -23 -14 -18 4 -44 11 -59 14 -19 4
-28 13 -28 26 0 13 -7 20 -20 20 -23 0 -26 -10 -7 -29 10 -10 4 -12 -28 -9
-37 3 -40 5 -37 31 4 30 -4 33 -33 11 -17 -12 -18 -16 -5 -24 12 -7 11 -10 -5
-16 -11 -4 -22 -11 -25 -15 -5 -7 -197 -15 -252 -10 -13 1 -18 10 -18 35 0 18
-6 38 -12 43 -12 10 -68 24 -68 17 0 -1 4 -13 9 -26 4 -13 11 -35 14 -49 l7
-26 -93 -13 c-50 -6 -110 -13 -132 -15 -73 -6 -193 -55 -282 -116 -23 -16 -71
-57 -106 -92 -100 -97 -165 -157 -171 -157 -3 0 -6 10 -6 23 -1 19 -41 77 -54
77 -8 0 5 -63 15 -75 22 -23 8 -65 -34 -107 -75 -74 -74 -74 -86 -20 -5 26
-13 71 -17 99 -5 40 -11 54 -26 59 -25 7 -34 -1 -20 -19 14 -16 36 -153 27
-167 -9 -15 -32 -12 -39 5 -3 10 -19 15 -46 15 -31 0 -40 4 -41 18 0 9 -1 39
-2 66 -2 30 2 54 10 62 15 15 2 27 -20 18 -19 -7 -35 35 -17 46 15 9 9 45 -8
44 -6 -1 -25 -2 -42 -2 -22 -2 -30 -7 -30 -21 0 -27 -22 -41 -80 -50 -28 -5
-56 -13 -63 -20 -6 -6 -7 -11 -3 -11 5 0 3 -7 -4 -15 -7 -8 -9 -15 -5 -15 4 0
0 -11 -9 -24 -9 -14 -13 -32 -10 -40 4 -11 0 -16 -10 -16 -9 0 -16 8 -16 17 0
30 -12 5 -13 -28 -2 -39 -31 -58 -80 -54 -18 2 -41 3 -52 4 -32 2 -42 13 -49
57 -5 30 -3 45 7 56 14 13 21 50 18 86 -1 8 -18 12 -50 12 -65 0 -77 5 -102
46 -11 19 -24 34 -27 34 -19 -1 -32 -20 -38 -57 -6 -38 -4 -42 17 -45 17 -2
31 -17 46 -46 20 -40 22 -69 14 -159 -1 -8 -16 -13 -41 -13 l-40 0 0 -220 0
-220 34 0 c58 0 94 11 99 31 3 10 -1 23 -9 30 -24 20 -16 39 15 39 28 0 43
-16 46 -50 1 -8 3 -21 4 -28 1 -9 13 -13 38 -10 l37 3 13 -79 c8 -43 12 -81 9
-83 -11 -11 -46 10 -46 28 0 10 -4 19 -8 19 -5 0 -9 -26 -10 -57 -1 -32 -4
-71 -7 -88 -4 -24 1 -37 25 -63 38 -41 66 -39 63 3 -3 50 -11 85 -23 100 -8
10 -8 15 1 20 17 11 27 -12 40 -93 l12 -74 31 7 c17 3 45 9 62 12 l31 5 3 -96
c3 -102 4 -242 2 -421 -1 -60 -1 -119 0 -131 0 -11 -11 -39 -25 -61 -14 -22
-33 -58 -42 -79 l-16 -38 26 24 c23 22 31 20 25 -5 -1 -5 -4 -27 -6 -47 -3
-31 -1 -36 13 -31 10 4 14 2 12 -6 -3 -7 -8 -11 -13 -9 -5 2 -13 -8 -18 -22
l-10 -25 -10 25 c-5 14 -7 37 -4 53 3 15 2 27 -2 26 -12 0 -52 -55 -67 -93
-13 -31 -13 -36 1 -51 12 -11 14 -19 6 -27 -13 -13 -32 -2 -32 19 0 13 -3 13
-15 3 -8 -7 -13 -16 -10 -20 3 -4 -2 -11 -11 -14 -13 -5 -14 -9 -4 -21 7 -8
16 -13 20 -10 5 3 11 1 15 -5 3 -5 -3 -10 -15 -10 -11 0 -23 -8 -27 -17 -13
-37 -44 -72 -58 -66 -11 4 -14 0 -9 -13 10 -27 35 -54 51 -54 16 0 17 16 2 26
-23 14 8 94 36 94 13 0 8 -37 -11 -85 -7 -19 -7 -19 13 -2 30 26 43 21 43 -16
0 -39 53 -101 104 -122 17 -7 42 -23 56 -35 20 -17 22 -23 10 -30 -23 -15 -7
-21 63 -23 60 -2 67 -4 78 -27 17 -37 28 -78 39 -147 6 -34 13 -70 16 -80 5
-16 4 -16 -10 1 -9 11 -16 14 -16 7 0 -7 -4 -10 -9 -7 -4 3 -16 -3 -26 -14
-10 -11 -22 -17 -26 -14 -5 3 -9 3 -9 0 0 -7 40 -80 87 -161 59 -99 62 -118
25 -155 -17 -16 -27 -30 -23 -30 4 0 12 5 19 12 6 6 14 9 17 6 4 -3 -7 -20
-24 -37 -36 -37 -37 -38 -14 -43 15 -3 15 -5 1 -18 -8 -8 -13 -21 -10 -28 2
-6 -2 -12 -8 -12 -7 0 -10 -7 -6 -15 6 -16 -13 -55 -26 -55 -3 0 -18 39 -33
88 -42 133 -46 144 -61 138 -8 -3 -14 -1 -14 3 0 5 7 12 15 15 14 5 14 9 -2
33 -10 15 -16 35 -15 46 2 10 -1 24 -7 30 -5 7 -12 25 -15 41 -3 15 -13 46
-24 69 -10 23 -24 55 -30 70 -8 18 -16 25 -24 21 -9 -6 -9 -9 0 -12 7 -2 12
-10 12 -18 0 -8 5 -22 11 -33 9 -13 9 -23 1 -37 -11 -18 -12 -18 -18 2 -4 15
-13 21 -32 20 -15 -1 -42 2 -60 5 -53 11 -51 -13 8 -99 152 -220 163 -237 154
-264 -5 -17 -3 -20 10 -15 9 4 16 2 16 -3 0 -6 -6 -10 -14 -10 -8 0 -16 -6
-19 -14 -7 -17 -43 -10 -51 10 -8 21 -25 17 -36 -8 -6 -16 -9 -18 -9 -7 -1 9
-8 22 -16 29 -21 17 -19 30 5 30 11 0 20 5 20 11 0 6 -9 8 -20 4 -11 -3 -20
-2 -20 4 0 5 8 12 18 14 16 4 16 5 0 6 -10 0 -18 7 -18 15 0 20 -32 29 -61 16
-21 -9 -20 -10 10 -5 33 5 33 4 18 -13 -10 -10 -17 -25 -17 -32 0 -7 -8 -22
-17 -32 -17 -19 -16 -19 9 -13 22 6 29 2 42 -23 8 -16 13 -32 10 -35 -3 -3 4
-10 15 -17 12 -6 21 -19 21 -29 0 -11 46 -65 103 -122 57 -57 118 -124 135
-148 l32 -43 10 27 c14 36 15 56 7 135 -5 48 -4 57 3 35 5 -16 17 -36 27 -43
15 -10 15 -16 5 -32 -17 -28 -15 -48 3 -24 8 11 15 14 15 7 0 -7 9 -13 20 -13
11 0 20 -5 20 -11 0 -6 -9 -8 -20 -4 -12 4 -20 2 -20 -5 0 -6 4 -9 9 -6 5 3
14 -1 21 -9 10 -12 9 -15 -8 -15 -11 0 -23 -7 -26 -16 -3 -8 -11 -12 -17 -8
-7 4 -9 0 -5 -14 4 -13 1 -31 -9 -46 -11 -16 -13 -26 -6 -31 6 -3 11 -11 11
-16 0 -6 -4 -7 -10 -4 -14 9 -12 -18 3 -34 9 -11 9 -13 -1 -7 -15 9 -15 -6 -1
-55 7 -21 15 -36 20 -34 4 3 10 1 13 -4 4 -5 2 -12 -3 -15 -6 -4 -4 -17 5 -34
7 -15 14 -44 14 -64 0 -20 5 -40 11 -44 8 -4 7 -9 -2 -15 -8 -5 -9 -9 -4 -9 6
0 17 5 25 10 10 6 11 10 3 10 -10 0 -10 6 -1 25 6 14 17 25 25 25 16 0 16 4
-1 38 -13 25 -13 28 5 28 14 0 17 -5 13 -23 -4 -13 -2 -23 4 -23 5 0 13 11 16
24 4 18 11 23 26 19 11 -3 20 -10 20 -15 0 -5 -9 -6 -20 -3 -19 6 -26 -7 -21
-37 0 -5 -3 -8 -9 -8 -5 0 -6 -8 -3 -17 5 -13 2 -15 -11 -10 -13 5 -15 3 -7
-10 5 -10 5 -26 1 -39 -6 -14 -4 -28 6 -42 11 -16 11 -21 1 -25 -6 -2 -13 -17
-13 -33 -1 -16 -5 -39 -9 -51 -6 -18 -3 -23 11 -23 18 -1 18 -1 1 -14 -9 -7
-17 -26 -16 -42 0 -29 0 -29 10 -5 5 13 26 43 46 65 32 34 35 41 19 44 -23 5
-34 -7 -17 -17 10 -6 10 -10 1 -16 -6 -4 -17 1 -25 11 -7 11 -9 21 -4 22 5 2
9 10 9 18 0 17 17 19 23 2 4 -10 8 -10 15 1 8 11 10 11 14 0 8 -21 20 -4 21
29 2 25 4 28 19 18 22 -14 32 -37 12 -29 -17 6 -18 -8 -1 -26 10 -10 9 -11 -6
-5 -9 3 -24 1 -32 -6 -12 -10 -13 -16 -3 -28 11 -13 11 -14 0 -8 -11 6 -13 -1
-12 -30 3 -56 1 -61 -14 -42 -8 11 -20 15 -34 11 -30 -7 -28 -23 3 -23 14 0
25 -5 25 -11 0 -6 -7 -9 -15 -5 -10 4 -22 -5 -35 -27 -11 -17 -20 -25 -21 -17
0 9 -5 5 -12 -9 -9 -19 -9 -25 1 -29 7 -2 10 -8 6 -13 -10 -17 13 -9 30 10 11
12 15 27 11 39 -8 27 8 35 39 21 27 -13 37 -35 11 -25 -8 3 -15 0 -15 -6 0 -6
-10 -19 -22 -29 -11 -11 -16 -19 -10 -19 17 0 15 -25 -2 -39 -11 -9 -15 -9
-19 1 -4 10 -6 10 -6 0 -1 -7 6 -15 14 -18 8 -4 15 -13 15 -21 0 -10 -6 -13
-16 -9 -9 3 -20 6 -25 6 -5 0 -9 8 -9 18 -1 9 -10 0 -20 -22 -15 -30 -17 -42
-8 -47 14 -9 31 -1 23 11 -3 5 -1 11 5 15 5 3 10 -2 10 -12 1 -17 2 -17 15 1
14 19 15 19 15 -8 0 -15 -5 -48 -12 -74 -10 -41 -13 -44 -18 -22 -4 14 -2 28
4 32 7 5 4 8 -6 8 -10 0 -18 8 -19 18 -1 9 -6 0 -11 -21 -6 -21 -17 -41 -24
-44 -9 -3 -12 -13 -7 -31 4 -17 2 -23 -5 -18 -8 4 -10 2 -6 -8 3 -8 19 -20 35
-26 16 -7 29 -17 29 -22 0 -7 -5 -6 -13 1 -8 6 -24 12 -37 14 -25 4 -62 47
-41 47 6 0 11 5 11 10 0 12 -37 13 -44 1 -9 -13 -56 11 -56 29 0 12 -2 12 -9
2 -6 -10 -13 -11 -34 -1 -31 14 -36 30 -8 22 10 -3 21 -1 24 4 3 5 -6 8 -21 8
-15 -1 -30 0 -34 2 -10 5 22 38 44 46 10 4 18 13 18 21 0 8 12 24 28 37 l27
21 -25 -7 c-14 -4 -32 -13 -40 -20 -8 -7 -21 -10 -27 -8 -7 3 -13 0 -13 -7 0
-6 4 -9 8 -6 4 2 14 1 22 -4 12 -7 11 -10 -5 -16 -11 -4 -28 -16 -38 -28 -16
-20 -18 -20 -28 -4 -8 15 -13 16 -29 5 -28 -17 -25 -29 6 -21 21 5 25 4 19 -6
-6 -10 -4 -12 7 -7 11 4 18 -2 22 -19 5 -17 13 -24 31 -24 15 0 25 -6 25 -15
0 -11 8 -13 30 -8 19 3 30 1 30 -6 0 -6 -4 -11 -10 -11 -5 0 -10 -15 -10 -34
0 -19 -5 -38 -12 -42 -8 -5 -9 2 -5 24 6 27 4 32 -13 32 -11 0 -20 6 -20 14 0
11 -20 26 -34 26 -1 0 -2 -9 -2 -20 0 -11 4 -20 8 -20 4 0 8 -5 8 -10 0 -6
-11 -3 -24 6 -14 8 -23 21 -20 28 6 16 -23 29 -31 15 -9 -14 -25 -1 -18 16 3
8 0 15 -5 15 -21 0 -22 -19 -1 -38 22 -21 13 -37 -11 -21 -8 5 -31 9 -51 9
-31 0 -38 -4 -43 -25 -8 -33 -1 -45 27 -45 19 0 18 -3 -11 -20 -33 -21 -52
-54 -52 -93 1 -19 2 -20 13 -7 8 11 22 14 42 10 20 -4 26 -8 17 -13 -7 -5 -21
-5 -32 -2 -15 5 -18 3 -14 -9 4 -12 0 -16 -16 -16 -13 0 -19 -4 -14 -12 5 -7
3 -8 -6 -3 -10 6 -12 1 -8 -19 4 -22 1 -27 -19 -32 -20 -5 -193 32 -251 53
-10 4 -12 -46 -12 -237 l1 -242 22 7 c44 14 87 17 87 6 0 -6 9 -11 21 -11 14
0 19 -5 16 -14 -3 -8 -11 -33 -17 -55 -11 -42 -24 -58 -35 -41 -3 5 -19 10
-36 10 -37 0 -37 13 -1 27 26 11 26 11 -15 12 l-43 1 0 -49 c0 -39 4 -51 18
-54 16 -4 16 -5 0 -6 -20 -1 -25 -31 -6 -31 9 0 9 -3 0 -12 -20 -20 -14 -36
13 -30 15 2 25 0 25 -7 0 -6 -11 -11 -24 -11 l-25 0 0 -160 0 -160 24 0 c30 0
30 7 3 -160 -18 -115 -22 -190 -25 -497 l-5 -363 4001 0 4001 0 0 119 c0 105
-2 120 -17 124 -17 4 -17 5 0 6 14 1 17 11 17 65 0 42 -4 66 -12 69 -10 4 -10
6 -1 6 18 1 18 1701 0 1701 -7 0 -37 -17 -67 -37 -30 -20 -49 -29 -41 -19 8 9
38 31 68 49 l53 32 0 192 c0 106 -2 193 -5 193 -16 0 -74 -36 -103 -64 -61
-56 -91 -141 -72 -204 l9 -34 -52 46 c-29 25 -96 82 -150 126 -86 70 -103 80
-138 80 -55 0 -104 28 -170 97 -95 98 -111 155 -56 197 45 34 70 33 183 -10
l95 -35 53 15 c70 21 98 20 174 -4 35 -11 86 -20 114 -20 45 0 54 4 84 37 l34
37 0 118 0 117 -37 10 c-98 24 -98 24 -80 28 10 3 32 0 49 -6 17 -6 39 -11 49
-11 18 0 19 20 19 489 l0 488 -115 7 c-93 5 -120 4 -144 -8 -51 -27 -64 -59
-161 -396 -12 -41 -26 -79 -31 -84 -5 -6 -9 -18 -9 -27 0 -25 -117 -139 -142
-139 -13 0 -158 -149 -158 -162 0 -5 -7 -8 -15 -8 -8 0 -17 -11 -21 -25 -3
-13 -14 -27 -25 -30 -11 -4 -23 -22 -29 -46 -9 -32 -15 -39 -35 -39 -18 0 -25
-5 -25 -20 0 -11 6 -20 14 -20 7 0 19 -7 26 -15 16 -19 30 -19 30 0 0 23 46
41 65 25 8 -7 15 -19 15 -26 0 -8 5 -14 11 -14 7 0 9 9 5 24 -5 20 4 33 47 75
28 28 57 51 64 51 6 0 15 9 18 20 3 11 13 20 21 20 19 0 18 -16 -3 -38 -14
-13 -18 -36 -20 -95 -1 -43 -7 -85 -14 -93 -6 -8 -9 -14 -5 -14 8 0 -26 -84
-38 -92 -11 -7 -53 -4 -62 5 -4 3 -6 35 -6 69 l1 63 -15 -47 c-8 -27 -19 -48
-24 -48 -6 0 -10 4 -10 9 0 6 -12 4 -27 -4 -34 -18 -46 -10 -38 26 6 24 3 29
-13 29 -11 0 -32 -16 -47 -36 -21 -27 -30 -33 -36 -23 -7 11 -9 10 -9 -5 0
-16 -5 -17 -36 -11 -31 5 -36 4 -31 -9 8 -21 -2 -46 -18 -46 -16 0 -38 -112
-30 -151 6 -25 4 -29 -14 -29 -24 0 -25 -7 -11 -45 8 -22 15 -26 33 -20 12 4
31 6 42 6 50 -1 138 20 166 40 l31 22 -12 -22 c-15 -28 -8 -36 18 -22 28 15
32 14 32 -8 0 -11 5 -23 10 -26 6 -3 10 1 10 9 0 9 5 16 11 16 8 0 10 -18 5
-61 -3 -34 -6 -85 -6 -112 0 -57 -10 -55 -26 6 -9 36 -10 26 -10 -74 1 -121
-11 -169 -43 -169 -9 0 -45 -6 -81 -14 -200 -44 -286 -52 -333 -33 -35 15 -52
47 -24 47 8 0 9 3 1 8 -17 11 -24 56 -14 91 15 52 15 505 1 592 -11 62 -11 81
-1 100 20 36 216 275 247 298 14 12 24 23 22 25 -2 2 -44 0 -94 -5 -219 -19
-614 -5 -756 27 -109 25 -140 76 -75 124 22 16 30 28 23 32 -18 11 -82 9 -114
-3 -21 -8 -59 -7 -153 6 -69 9 -143 21 -165 26 -56 14 -219 23 -358 20 -134
-3 -141 2 -109 66 35 70 37 120 2 79 -8 -11 -24 -13 -61 -9 -54 6 -89 -13 -85
-45 2 -9 -4 -28 -12 -41 -14 -21 -14 -24 2 -33 10 -6 27 -19 37 -29 10 -10 21
-14 24 -9 9 15 45 12 45 -3 0 -7 -11 -28 -25 -47 -14 -19 -25 -42 -25 -51 0
-10 -5 -21 -11 -25 -17 -10 -3 -119 18 -144 10 -11 29 -20 43 -20 34 0 110
-37 110 -53 -1 -17 -25 -47 -39 -47 -6 0 -11 -4 -11 -9 0 -13 168 -39 335 -51
176 -13 295 -38 384 -81 48 -24 78 -32 125 -33 33 0 65 -5 69 -11 6 -6 10 -6
14 3 6 15 23 6 23 -12 0 -19 -210 -40 -319 -32 -408 29 -502 39 -676 66 -222
35 -581 53 -716 36 -65 -8 -68 -8 -90 18 -33 38 -67 34 -122 -14 -58 -52 -77
-51 -102 3 -26 55 -58 61 -99 18 l-29 -30 -32 35 c-37 39 -62 42 -139 19 -65
-20 -105 -19 -129 3 -13 12 -37 17 -81 18 -42 1 -81 10 -124 29 -35 14 -86 30
-113 34 -33 5 -59 17 -78 35 -15 14 -32 26 -39 26 -7 0 -12 4 -12 10 0 19 80
30 297 38 211 9 225 11 272 35 50 26 112 77 94 77 -5 0 -18 -8 -29 -17 -28
-26 -39 -25 -39 3 0 13 3 24 8 24 4 0 7 4 7 8 0 18 -72 42 -132 43 -24 0 -43
35 -24 42 8 3 14 21 14 46 1 49 7 61 32 61 10 0 20 7 24 15 6 17 61 21 71 5 4
-6 11 -8 16 -4 6 3 20 -3 32 -15 15 -13 33 -19 52 -17 24 3 31 10 40 42 l11
39 7 -59 c6 -50 5 -60 -10 -72 -17 -12 -17 -13 0 -19 9 -4 17 -14 17 -22 0 -9
-5 -11 -12 -7 -9 6 -9 3 1 -9 17 -22 9 -42 -26 -59 -31 -15 -36 -31 -10 -36
11 -2 17 3 17 13 0 14 6 16 27 10 28 -7 43 -21 43 -41 0 -18 45 -25 100 -18
40 5 59 2 97 -16 27 -13 80 -26 123 -31 86 -8 309 -52 388 -75 42 -12 61 -13
88 -4 18 6 38 9 43 6 4 -3 11 12 15 34 13 81 -21 151 -108 222 -64 53 -64 53
-140 55 -107 4 -167 40 -153 94 4 16 -3 21 -41 31 -44 11 -45 12 -25 28 18 14
21 30 24 111 5 158 -6 176 -88 144 -34 -13 -192 -55 -207 -55 -3 0 -6 9 -6 19
0 11 -11 33 -25 49 -25 30 -24 45 3 35 11 -5 14 -2 9 10 -3 9 -2 19 4 23 6 3
24 25 40 47 29 40 34 42 82 43 56 1 74 5 95 18 9 5 20 3 29 -7 14 -14 13 -20
-11 -61 -14 -24 -23 -47 -19 -49 5 -2 32 -3 60 -2 l53 1 27 -53 c29 -55 48
-70 68 -53 6 5 22 11 36 13 20 3 25 12 32 52 4 27 4 59 -1 74 -5 15 -6 36 -1
50 8 19 4 28 -21 51 -27 26 -43 80 -22 80 4 0 27 17 52 36 l45 37 -89 -6 c-49
-4 -91 -9 -94 -12 -3 -3 -6 -47 -7 -98 0 -73 -3 -92 -15 -95 -12 -2 -16 12
-18 66 -1 37 2 89 7 114 10 58 4 70 -35 60 -41 -11 -69 -9 -66 6 2 14 -10 16
-24 3 -5 -5 -42 -12 -83 -16 -41 -3 -79 -7 -84 -8 -5 -1 -12 4 -14 10 -3 8 22
29 58 50 103 62 151 116 123 138 -7 6 -14 17 -16 25 -4 21 -34 41 -51 34 -8
-3 -33 0 -56 6 -41 11 -91 5 -91 -11 0 -5 8 -9 19 -9 12 0 20 -9 23 -25 5 -22
2 -25 -23 -25 -16 0 -29 -5 -29 -11 0 -6 12 -9 28 -6 15 2 21 2 15 0 -7 -3
-13 -8 -13 -12 0 -4 -12 -13 -27 -20 -24 -11 -25 -11 -12 5 13 16 12 16 -10 5
-15 -8 -21 -9 -17 -2 7 10 -12 16 -42 12 -8 -1 -20 3 -28 10 -11 9 -14 9 -14
-1 0 -9 -6 -8 -19 4 -10 9 -25 14 -33 11 -8 -3 -21 1 -28 10 -7 8 -21 15 -31
15 -11 0 -19 7 -19 15 0 8 -6 15 -14 15 -21 0 -38 24 -25 37 7 7 7 13 1 17 -6
4 -7 20 -2 43 11 48 0 72 -23 48 -10 -9 -17 -23 -17 -31 0 -8 -6 -14 -14 -14
-8 0 -15 -14 -18 -35 -4 -39 8 -47 21 -13 8 21 8 21 13 -6 4 -22 1 -30 -18
-38 -13 -6 -20 -16 -16 -22 4 -6 7 -29 8 -52 2 -73 71 -184 129 -210 17 -7 24
-13 16 -14 -23 0 18 -40 42 -40 11 0 26 -8 33 -17 8 -12 13 -13 14 -5 0 9 7 8
25 -4 14 -9 35 -14 47 -11 22 6 58 -8 58 -23 0 -4 -17 -14 -37 -21 -21 -6 -78
-30 -128 -52 -97 -42 -191 -71 -206 -61 -5 3 -9 -2 -9 -10 0 -21 -21 -31 -31
-15 -6 10 -9 3 -9 -21 0 -20 -5 -41 -11 -47 -8 -8 -8 -13 0 -17 6 -4 11 -16
11 -27 0 -10 6 -19 13 -19 18 -1 48 -26 51 -43 1 -8 7 -21 13 -28 15 -19 33
-139 20 -139 -5 0 -15 -7 -21 -16 -7 -9 -18 -12 -29 -8 -18 7 -24 34 -7 34 6
0 10 3 10 8 0 4 -28 7 -63 7 -64 0 -146 29 -147 51 0 6 -18 14 -40 18 -27 4
-43 13 -51 29 -6 12 -24 34 -40 49 -16 15 -29 36 -29 47 0 16 -6 21 -26 21
-19 0 -25 4 -20 15 3 8 8 21 11 28 3 8 -5 19 -20 27 -14 7 -25 18 -25 24 0 13
-29 -26 -30 -40 0 -7 8 -11 17 -10 10 0 19 -7 21 -16 4 -21 -24 -25 -31 -5 -3
7 -6 4 -6 -6 -1 -10 -6 -15 -12 -12 -6 4 -7 19 -4 36 5 22 2 31 -10 35 -12 5
-16 17 -14 48 2 23 -1 47 -5 54 -10 17 -36 15 -36 -3 0 -8 7 -15 15 -15 13 0
18 -27 15 -87 -1 -5 -10 -8 -20 -7 -11 0 -20 -5 -20 -13 0 -18 -17 -16 -29 4
-10 18 -69 24 -108 10 -17 -6 -23 -3 -28 13 -3 11 -15 20 -26 20 -11 0 -24 10
-29 23 -5 12 -9 16 -9 10 -1 -15 -31 -18 -31 -3 0 6 -9 10 -19 10 -11 0 -23 5
-26 10 -3 6 -26 10 -51 10 -35 0 -51 6 -70 25 -14 14 -31 25 -37 24 -31 -4
-46 3 -52 22 l-7 21 -15 -21 c-8 -12 -11 -26 -8 -31 3 -6 2 -10 -3 -10 -14 0
-22 40 -13 59 4 9 8 87 9 173 0 86 3 167 7 179 4 13 3 19 -2 16 -16 -10 -39
41 -25 55 9 9 13 7 18 -5 10 -28 37 -21 32 8 -3 14 -1 25 4 25 10 0 115 103
190 185 20 22 55 56 77 75 22 19 41 44 41 55 1 19 1 19 14 2 9 -12 16 -14 21
-8 3 6 2 11 -3 11 -5 0 -8 14 -6 30 3 21 -1 30 -11 30 -12 0 -12 5 -3 25 6 14
20 25 30 25 11 0 16 4 13 10 -7 12 17 3 62 -21 27 -15 33 -16 43 -3 17 19 99
19 106 -1 4 -9 19 -15 39 -15 19 0 37 -4 40 -10 3 -5 22 -10 41 -10 24 0 34
-4 34 -16 0 -9 8 -18 18 -21 10 -2 22 -14 27 -26 12 -25 73 -41 107 -28 13 5
37 22 53 36 17 15 40 31 53 36 12 5 23 15 23 24 1 8 3 20 4 25 1 6 3 15 4 20
1 13 41 13 41 -1 0 -5 3 -8 8 -5 4 2 26 1 49 -3 38 -7 45 -5 68 18 26 28 33
51 15 51 -5 0 -10 7 -10 15 0 9 -6 26 -14 38 -22 34 -14 112 14 142 28 29 40
32 40 7 0 -27 47 -90 80 -107 25 -13 30 -13 30 -1 0 7 -7 20 -16 27 -42 34
-27 88 39 139 20 16 27 30 27 57 0 30 2 34 14 23 16 -12 18 -4 30 102 6 54 0
59 -59 46 -22 -5 -46 -9 -54 -10 -7 -1 -28 -16 -47 -33 -28 -27 -34 -29 -34
-14 0 20 -24 26 -35 9 -12 -20 -21 -10 -17 19 4 30 -13 41 -69 41 -15 0 -30 7
-33 15 -3 9 -14 15 -23 13 -11 -2 -18 4 -21 17 -8 50 -13 65 -21 60 -5 -3 -11
1 -14 7 -4 10 -7 11 -18 1 -7 -7 -16 -13 -20 -13 -10 0 -17 60 -7 66 4 3 8 14
8 26 0 16 5 19 23 15 12 -3 39 -9 61 -13 l39 -7 -7 39 c-17 98 -18 114 -7 114
6 0 11 -4 11 -9 0 -5 14 -13 32 -16 24 -6 35 -3 44 9 8 11 14 13 19 7 3 -6 14
-11 23 -10 11 0 12 2 4 6 -17 7 -5 23 19 23 11 0 19 -7 19 -17 0 -14 3 -13 23
5 13 12 32 22 42 22 18 0 18 -1 -3 -16 -22 -15 -29 -34 -13 -34 5 0 18 8 27
18 17 16 17 16 11 0 -6 -16 2 -17 73 -16 93 2 110 -8 110 -63 0 -39 0 -39 -42
-41 -24 -1 -50 -2 -58 -4 -8 -1 -21 -2 -29 -3 -10 -1 -11 -4 -2 -15 6 -7 23
-12 39 -9 21 3 23 2 8 -5 -25 -11 -8 -22 39 -27 27 -2 35 1 35 13 0 15 2 15
10 2 5 -8 10 -27 10 -42 0 -15 5 -30 11 -34 15 -9 -27 -33 -57 -34 -18 0 -23
-7 -26 -42 -2 -24 -1 -44 4 -46 4 -2 8 -21 8 -42 0 -57 18 -59 22 -3 l3 48 58
9 c40 6 62 5 69 -2 6 -6 13 -44 16 -85 4 -70 3 -78 -22 -110 -21 -27 -25 -41
-20 -64 11 -47 20 -51 87 -46 34 3 63 7 65 8 1 1 -6 22 -17 46 -24 55 -57 185
-66 262 -7 54 -6 59 14 64 30 8 26 31 -6 35 -36 4 -36 25 0 52 34 25 57 14 70
-33 8 -31 10 -32 54 -30 39 3 49 0 61 -20 20 -29 18 -158 -3 -267 -8 -44 -15
-93 -15 -111 l0 -31 63 0 c52 1 65 5 82 24 18 21 34 24 200 36 l180 13 -4 145
c-2 80 -5 154 -7 165 -2 11 -6 85 -9 165 -3 80 -10 195 -15 255 -5 61 -12 187
-15 280 -4 94 -8 188 -11 210 -2 22 -7 90 -10 150 -4 61 -11 116 -17 123 -11
14 -61 17 -52 3 3 -5 1 -12 -5 -16 -6 -3 -7 -37 -4 -85 5 -73 4 -79 -16 -85
-11 -4 -34 -4 -51 0 -18 4 -36 2 -45 -5 -17 -15 -74 -23 -74 -11 0 5 6 12 13
14 7 3 5 6 -5 6 -15 1 -18 11 -18 66 0 65 -19 95 -21 33 0 -18 -3 -28 -5 -21
-4 8 -16 10 -33 7 -23 -5 -29 -2 -34 15 -3 12 -11 21 -17 21 -10 0 -11 -16 -7
-60 l7 -60 -33 -2 c-115 -7 -127 4 -127 110 0 64 -3 75 -19 79 -10 2 -24 16
-32 29 -7 13 -16 21 -20 17 -13 -14 -14 -60 -1 -76 7 -9 12 -31 10 -49 -3 -30
-6 -33 -38 -33 -34 0 -35 2 -44 48 -8 39 -7 50 5 58 12 8 12 10 -1 19 -19 13
-37 13 -45 0 -3 -5 -18 -10 -32 -10 -18 0 -24 4 -19 15 3 8 1 15 -4 15 -12 0
-12 -36 -1 -103 9 -54 2 -65 -48 -69 -26 -2 -38 3 -52 22 -23 30 -38 130 -20
130 6 0 11 5 11 10 0 14 -23 12 -44 -3 -14 -10 -15 -17 -6 -41 18 -49 3 -41
-20 10 -13 26 -43 72 -69 101 -124 144 -310 234 -498 244 -65 3 -75 -14 -13
-22 25 -4 71 -14 103 -23 32 -9 60 -16 63 -16 3 0 2 -6 -2 -12 -4 -7 -4 -10 0
-6 9 7 78 -20 87 -34 4 -6 18 -12 32 -13 33 -4 47 -13 47 -30 0 -7 19 -24 43
-38 47 -28 94 -74 84 -83 -3 -3 -19 3 -36 15 -56 40 -135 69 -201 75 -36 3
-66 5 -67 6 -1 0 -8 6 -15 13 -7 7 -38 25 -68 41 -54 28 -144 111 -136 124 3
4 -7 9 -22 10 -15 1 -40 8 -57 16 -86 41 -163 74 -183 80 -13 4 -27 18 -32 31
-7 18 -14 22 -32 17 -12 -3 -17 -7 -10 -10 25 -8 11 -20 -27 -24 -31 -3 -37
-1 -29 9 6 7 7 24 4 38 -9 35 -41 33 -58 -5 -15 -35 -23 -36 -89 -13 -51 18
-50 16 -37 98 2 16 -3 21 -30 23 -23 2 -34 -2 -39 -13z m42 -55 c3 -5 2 -10
-4 -10 -5 0 -13 5 -16 10 -3 6 -2 10 4 10 5 0 13 -4 16 -10z m-1002 -77 c-7
-2 -21 -2 -30 0 -10 3 -4 5 12 5 17 0 24 -2 18 -5z m682 -8 c-16 -8 -37 -14
-45 -14 -8 0 1 7 20 14 46 18 64 17 25 0z m-839 -17 c-24 -14 -66 -19 -81 -10
-5 4 8 10 30 13 65 10 72 10 51 -3z m3 -32 c-2 -2 -15 -9 -29 -15 -24 -11 -24
-11 -6 3 16 13 49 24 35 12z m314 -21 c-6 -18 -62 -49 -71 -41 -3 3 -1 6 4 6
5 0 22 11 38 25 34 29 37 30 29 10z m-448 -25 c-3 -5 -15 -10 -26 -10 -11 0
-17 5 -14 10 3 6 15 10 26 10 11 0 17 -4 14 -10z m245 -16 c0 -10 -33 -33 -49
-34 -8 0 -3 8 10 20 25 20 39 25 39 14z m170 -24 c-14 -11 -31 -20 -39 -20
-18 0 -13 5 24 24 40 21 45 20 15 -4z m-505 -10 c-16 -11 -37 -20 -45 -20 -8
1 1 9 20 20 46 25 63 25 25 0z m-68 -61 c-21 -11 -41 -27 -44 -35 -3 -8 -11
-13 -18 -10 -8 3 -16 -2 -19 -11 -4 -9 -9 -13 -12 -10 -4 3 -15 -3 -27 -14
-11 -10 -25 -19 -31 -19 -13 0 65 65 79 65 5 1 23 13 39 28 16 15 38 27 50 27
16 -1 12 -6 -17 -21z m1480 15 c-3 -3 -12 -4 -19 -1 -8 3 -5 6 6 6 11 1 17 -2
13 -5z m-957 -8 c0 -2 -9 -6 -20 -9 -11 -3 -18 -1 -14 4 5 9 34 13 34 5z
m1995 -78 c26 -26 24 -25 -19 6 -27 20 -62 44 -77 52 -16 8 -29 17 -29 20 0
11 95 -49 125 -78z m-2510 31 c-25 -23 -48 -39 -52 -36 -8 9 16 37 52 59 48
29 48 21 0 -23z m85 31 c0 -5 -5 -10 -11 -10 -5 0 -7 5 -4 10 3 6 8 10 11 10
2 0 4 -4 4 -10z m309 -16 c-7 -8 -26 -22 -43 -31 -33 -16 -28 -9 18 25 34 26
44 28 25 6z m-199 -19 c-7 -9 -15 -13 -19 -10 -3 3 1 10 9 15 21 14 24 12 10
-5z m130 10 c0 -2 -10 -9 -22 -15 -22 -11 -22 -10 -4 4 21 17 26 19 26 11z
m1010 -15 c0 -5 -5 -10 -11 -10 -5 0 -7 5 -4 10 3 6 8 10 11 10 2 0 4 -4 4
-10z m-1501 -26 c-13 -14 -32 -30 -42 -36 -31 -16 -6 20 29 43 39 25 42 24 13
-7z m468 -18 c-9 -7 -17 -16 -17 -20 0 -4 -8 -15 -18 -26 -30 -33 -194 -98
-177 -70 3 5 14 10 24 10 21 0 101 50 155 96 22 19 42 31 45 28 3 -3 -2 -11
-12 -18z m-367 9 c0 -2 -10 -10 -22 -16 -21 -11 -22 -11 -9 4 13 16 31 23 31
12z m170 -30 c-18 -19 -35 -33 -38 -31 -4 4 59 65 67 66 3 0 -10 -16 -29 -35z
m124 12 c-23 -29 -64 -61 -64 -49 0 10 66 72 76 72 3 0 -3 -10 -12 -23z m249
16 c-7 -2 -19 -2 -25 0 -7 3 -2 5 12 5 14 0 19 -2 13 -5z m-1218 -45 c18 -37
31 -163 18 -171 -15 -10 -105 -18 -125 -11 -31 10 -9 25 28 18 19 -3 34 -3 34
0 0 17 -30 76 -39 76 -14 0 -12 103 2 112 7 4 24 8 39 8 20 0 31 -8 43 -32z
m670 7 c-34 -28 -27 -33 11 -9 13 9 27 14 30 11 4 -3 -9 -15 -27 -26 -36 -22
-54 -27 -45 -12 4 5 0 11 -6 14 -8 2 2 13 22 25 46 29 52 28 15 -3z m148 -60
c-26 -30 -52 -55 -58 -55 -5 0 15 25 45 55 30 30 56 55 58 55 2 0 -18 -25 -45
-55z m927 51 c0 -2 -11 -6 -25 -8 -13 -3 -22 -1 -19 3 5 9 44 13 44 5z m-950
-35 c0 -7 -68 -79 -96 -101 -10 -9 -34 -33 -53 -55 -36 -42 -31 -33 35 62 38
53 92 112 69 74 -5 -10 -4 -12 4 -7 6 4 9 12 6 17 -9 14 4 29 20 22 8 -3 15
-8 15 -12z m560 -14 c0 -2 -10 -12 -22 -23 l-23 -19 19 23 c18 21 26 27 26 19z
m-187 -14 c-7 -2 -19 -2 -25 0 -7 3 -2 5 12 5 14 0 19 -2 13 -5z m-653 -40 c0
-7 -5 -13 -11 -13 -6 0 -8 7 -5 16 5 12 2 15 -10 10 -14 -5 -15 -4 -4 9 11 13
15 13 21 3 5 -7 9 -19 9 -25z m2640 17 c0 -5 -4 -10 -10 -10 -5 0 -10 5 -10
10 0 6 5 10 10 10 6 0 10 -4 10 -10z m-2510 -53 c-43 -41 -39 -30 9 25 13 16
27 26 30 23 3 -3 -15 -25 -39 -48z m355 43 c3 -5 -3 -10 -15 -10 -12 0 -18 5
-15 10 3 6 10 10 15 10 5 0 12 -4 15 -10z m2270 0 c3 -5 1 -10 -4 -10 -6 0
-11 5 -11 10 0 6 2 10 4 10 3 0 8 -4 11 -10z m-3705 -25 c0 -8 -7 -15 -15 -15
-8 0 -15 7 -15 15 0 8 7 15 15 15 8 0 15 -7 15 -15z m1380 5 c0 -5 -2 -10 -4
-10 -2 0 -20 -7 -40 -15 -20 -8 -36 -13 -36 -10 0 3 14 11 30 16 17 6 30 15
30 20 0 5 5 9 10 9 6 0 10 -4 10 -10z m1200 -4 c0 -2 -7 -7 -16 -10 -8 -3 -12
-2 -9 4 6 10 25 14 25 6z m-2280 -10 c0 -9 -30 -14 -35 -6 -4 6 3 10 14 10 12
0 21 -2 21 -4z m1172 -28 c-7 -7 -12 -8 -12 -2 0 14 12 26 19 19 2 -3 -1 -11
-7 -17z m98 13 c0 -5 -7 -12 -16 -15 -14 -5 -15 -4 -4 9 14 17 20 19 20 6z
m825 -1 c-3 -5 -12 -10 -18 -10 -7 0 -6 4 3 10 19 12 23 12 15 0z m-1270 -50
c-10 -11 -23 -20 -28 -20 -6 0 0 11 13 25 27 29 42 25 15 -5z m-401 5 c-4 -8
-10 -15 -15 -15 -4 0 -6 7 -3 15 4 8 10 15 15 15 4 0 6 -7 3 -15z m716 11 c0
-8 -63 -36 -68 -31 -10 9 17 31 42 33 14 1 26 0 26 -2z m50 -35 c0 -13 -40
-41 -58 -41 -7 0 0 11 15 25 30 26 43 31 43 16z m560 -11 c-20 -13 -33 -13
-25 0 3 6 14 10 23 10 15 0 15 -2 2 -10z m-56 -25 c-10 -8 -23 -14 -29 -14 -5
0 -1 6 9 14 11 8 24 15 30 15 5 0 1 -7 -10 -15z m641 -5 c-17 -10 -48 -26 -70
-35 -35 -14 -38 -14 -21 0 11 8 25 15 30 15 6 0 22 9 36 20 14 11 32 20 40 20
8 0 1 -9 -15 -20z m129 5 c-10 -8 -23 -14 -29 -14 -5 0 -1 6 9 14 11 8 24 15
30 15 5 0 1 -7 -10 -15z m-1354 1 c0 -2 -9 -6 -20 -9 -11 -3 -18 -1 -14 4 5 9
34 13 34 5z m215 -6 c-88 -36 -196 -71 -211 -68 -10 2 20 16 66 32 47 15 92
32 100 37 8 5 26 8 40 8 23 0 23 -1 5 -9z m1492 4 c-3 -3 -12 -4 -19 -1 -8 3
-5 6 6 6 11 1 17 -2 13 -5z m-1087 -13 c0 -5 -7 -12 -16 -15 -24 -9 -28 -7
-14 9 14 17 30 20 30 6z m197 3 c-3 -3 -12 -4 -19 -1 -8 3 -5 6 6 6 11 1 17
-2 13 -5z m2303 -22 c0 -14 -23 -42 -35 -42 -16 0 -38 34 -28 43 5 6 63 5 63
-1z m-3930 -12 c0 -5 -5 -10 -11 -10 -5 0 -7 5 -4 10 3 6 8 10 11 10 2 0 4 -4
4 -10z m26 -18 c-16 -31 -136 -160 -136 -146 0 5 7 17 14 27 8 10 12 27 9 37
-4 15 3 24 27 37 18 10 47 30 64 45 39 34 40 34 22 0z m1467 11 c-7 -2 -19 -2
-25 0 -7 3 -2 5 12 5 14 0 19 -2 13 -5z m-508 -13 c-3 -5 -12 -10 -18 -10 -7
0 -41 -14 -77 -31 -53 -25 -130 -44 -130 -32 0 1 19 12 42 24 33 17 40 18 29
6 -12 -15 -10 -16 17 -6 17 6 36 17 43 25 6 8 21 14 33 14 11 0 28 5 36 10 20
13 33 13 25 0z m10 -29 c-21 -21 -175 -106 -175 -97 0 3 33 24 73 48 132 78
132 78 102 49z m1015 4 c0 -2 -10 -9 -22 -15 -22 -11 -22 -10 -4 4 21 17 26
19 26 11z m-2432 -26 c-2 -3 2 -12 8 -20 16 -21 37 -106 31 -124 -7 -17 -43
-20 -53 -4 -8 13 -14 140 -7 152 3 4 9 7 15 5 5 -2 8 -6 6 -9z m281 -69 c-12
-22 -25 -37 -28 -34 -7 7 30 74 41 74 5 0 -1 -18 -13 -40z m1596 30 c-3 -5
-16 -15 -28 -21 -19 -9 -19 -8 3 10 28 23 34 26 25 11z m-138 -6 c-3 -3 -12
-4 -19 -1 -8 3 -5 6 6 6 11 1 17 -2 13 -5z m313 2 c0 -2 -7 -7 -16 -10 -8 -3
-12 -2 -9 4 6 10 25 14 25 6z m-1690 -36 c-27 -39 -34 -39 -12 0 9 16 21 30
25 30 5 0 -1 -13 -13 -30z m1063 -10 c-14 -16 -28 -30 -30 -30 -2 0 6 14 19
30 12 17 25 30 30 30 4 0 -4 -13 -19 -30z m587 20 c0 -5 -5 -10 -11 -10 -5 0
-7 5 -4 10 3 6 8 10 11 10 2 0 4 -4 4 -10z m-211 -34 c-13 -13 -35 -27 -49
-31 -30 -9 -27 -5 25 33 46 34 60 32 24 -2z m2195 -22 c9 -25 7 -134 -3 -134
-21 0 -43 125 -24 143 11 11 20 8 27 -9z m297 -26 c5 -7 6 -30 2 -52 -4 -26
-2 -41 7 -46 11 -7 11 -16 3 -42 -5 -19 -8 -50 -6 -68 3 -19 5 -63 6 -97 1
-35 5 -63 9 -63 4 0 8 -7 8 -15 0 -18 -36 -20 -77 -4 -27 10 -27 11 -9 24 13
10 24 11 37 4 22 -11 23 -9 10 23 -5 13 -12 36 -16 51 -4 22 -10 27 -24 22
-13 -4 -24 2 -35 17 l-16 22 -2 -24 c-2 -44 2 -63 18 -74 11 -8 13 -20 9 -39
-6 -21 -13 -27 -35 -27 -23 0 -27 4 -27 25 0 14 4 25 9 25 5 0 2 10 -6 22 -9
12 -16 42 -16 66 0 40 2 43 17 31 15 -12 16 -12 10 5 -6 16 -5 17 8 6 13 -11
15 -9 15 12 0 13 -7 34 -16 46 -15 22 -14 24 5 41 l22 19 -31 10 c-28 10 -34
20 -31 48 1 6 -6 17 -14 24 -30 25 -14 31 71 26 57 -3 90 -9 95 -18z m167 -10
c6 -6 12 -17 12 -25 0 -8 6 -21 14 -29 8 -7 16 -19 19 -26 10 -28 16 1 7 32
-7 25 -6 36 2 41 21 13 28 -1 24 -49 -2 -26 0 -103 6 -170 7 -90 7 -127 -1
-135 -6 -6 -33 -12 -60 -13 -29 -1 -67 -11 -92 -23 -27 -14 -45 -19 -52 -12
-12 12 0 32 16 25 15 -5 19 28 19 141 1 108 -12 176 -39 208 -41 50 -33 60 45
52 37 -4 73 -12 80 -17z m-4218 -3 c0 -8 -4 -15 -10 -15 -5 0 -7 7 -4 15 4 8
8 15 10 15 2 0 4 -7 4 -15z m-172 -22 c-4 -20 -18 -26 -37 -14 -18 12 -5 31
20 31 14 0 19 -6 17 -17z m1822 13 c0 -8 -63 -36 -68 -31 -3 2 10 11 29 19 39
17 39 17 39 12z m900 -6 c-8 -5 -19 -10 -25 -10 -5 0 -3 5 5 10 8 5 20 10 25
10 6 0 3 -5 -5 -10z m-2785 -21 c-8 -12 -35 -12 -35 0 0 11 22 20 33 14 4 -2
5 -9 2 -14z m2855 11 c-8 -5 -19 -10 -25 -10 -5 0 -3 5 5 10 8 5 20 10 25 10
6 0 3 -5 -5 -10z m-460 -4 c0 -3 -4 -8 -10 -11 -5 -3 -10 -1 -10 4 0 6 5 11
10 11 6 0 10 -2 10 -4z m692 -28 c-11 -13 -36 -32 -54 -42 l-33 -19 30 33 c25
27 54 46 74 49 3 1 -5 -9 -17 -21z m-1322 -13 c-14 -8 -29 -14 -35 -14 -5 0 1
6 15 14 14 8 30 14 35 14 6 0 -1 -6 -15 -14z m-1669 -22 c9 -25 5 -95 -7 -128
-3 -7 3 -15 14 -17 21 -6 32 -44 32 -109 l0 -39 -47 0 c-27 0 -54 4 -60 8 -7
5 -18 35 -24 67 -9 50 -8 61 4 70 10 7 12 16 7 25 -4 7 -6 19 -3 27 3 7 -2 13
-11 13 -9 0 -18 11 -21 25 -3 14 -7 36 -10 49 -6 29 4 34 68 35 43 1 48 -2 58
-26z m1719 12 c-14 -8 -29 -14 -35 -14 -5 0 1 6 15 14 14 8 30 14 35 14 6 0
-1 -6 -15 -14z m-1621 -45 c-12 -22 -25 -38 -27 -35 -5 4 37 75 44 75 3 0 -5
-18 -17 -40z m1486 20 c-3 -5 -12 -10 -18 -10 -7 0 -6 4 3 10 19 12 23 12 15
0z m2153 -20 c-4 -24 -2 -27 9 -19 10 9 13 6 13 -14 0 -33 -14 -42 -34 -21
-11 10 -14 24 -10 42 12 51 29 60 22 12z m-1333 10 c-3 -5 -14 -10 -23 -9 -14
0 -13 2 3 9 27 11 27 11 20 0z m1632 -22 c-3 -8 -6 -5 -6 6 -1 11 2 17 5 13 3
-3 4 -12 1 -19z m-2047 8 c0 -3 -4 -8 -10 -11 -5 -3 -10 -1 -10 4 0 6 5 11 10
11 6 0 10 -2 10 -4z m-50 -41 c-13 -14 -28 -25 -34 -25 -6 1 3 12 19 25 39 32
45 32 15 0z m1998 8 c2 -8 -5 -13 -17 -13 -21 0 -35 13 -24 24 10 10 36 3 41
-11z m-1938 -2 c0 -5 -10 -11 -22 -14 -22 -6 -22 -6 -4 8 23 17 26 18 26 6z
m105 -21 c3 -5 -1 -10 -10 -10 -9 0 -13 5 -10 10 3 6 8 10 10 10 2 0 7 -4 10
-10z m1834 -55 c19 -66 1 -135 -35 -135 -8 0 -14 7 -14 16 0 8 5 12 10 9 6 -3
10 -2 10 3 0 6 -7 13 -16 16 -12 5 -15 14 -10 39 4 17 9 47 13 65 8 45 26 40
42 -13z m-3854 5 c-4 -12 -9 -19 -12 -17 -3 3 -2 15 2 27 4 12 9 19 12 17 3
-3 2 -15 -2 -27z m45 0 c-6 -12 -14 -19 -17 -17 -2 3 1 15 7 27 6 12 14 19 17
17 2 -3 -1 -15 -7 -27z m2643 11 c-4 -16 -27 -38 -102 -95 -12 -9 -12 -8 -3
10 10 18 99 104 107 104 2 0 1 -9 -2 -19z m-472 -6 c-18 -8 -38 -15 -45 -15
-15 1 46 28 64 29 8 0 0 -6 -19 -14z m1489 5 c24 -13 39 -123 19 -146 -20 -24
-72 -14 -80 16 -9 33 -11 125 -2 133 9 10 42 8 63 -3z m-1750 -10 c0 -5 -4
-10 -10 -10 -5 0 -10 5 -10 10 0 6 5 10 10 10 6 0 10 -4 10 -10z m55 0 c-3 -5
-13 -10 -21 -10 -8 0 -12 5 -9 10 3 6 13 10 21 10 8 0 12 -4 9 -10z m1400 0
c-3 -5 -11 -10 -16 -10 -6 0 -7 5 -4 10 3 6 11 10 16 10 6 0 7 -4 4 -10z m141
-25 c-5 -40 -46 -77 -46 -41 0 12 37 66 45 66 2 0 2 -11 1 -25z m-1891 -15
c-3 -5 -14 -10 -23 -9 -14 0 -13 2 3 9 27 11 27 11 20 0z m342 -31 c-22 -11
-41 -18 -44 -15 -4 3 9 12 28 20 50 22 60 18 16 -5z m1420 15 c-3 -3 -12 -4
-19 -1 -8 3 -5 6 6 6 11 1 17 -2 13 -5z m133 -45 c-14 -33 -25 -37 -34 -12 -4
10 2 25 16 38 27 26 35 15 18 -26z m-245 32 c-17 -7 -17 -9 -3 -17 13 -8 14
-11 2 -22 -11 -10 -15 -8 -25 9 -12 23 1 39 31 38 10 0 8 -3 -5 -8z m-1405 -5
c0 -11 -19 -15 -25 -6 -3 5 1 10 9 10 9 0 16 -2 16 -4z m-77 -23 c-7 -2 -19
-2 -25 0 -7 3 -2 5 12 5 14 0 19 -2 13 -5z m-338 -23 c-3 -5 -14 -10 -23 -10
-15 0 -15 2 -2 10 20 13 33 13 25 0z m1235 -4 c0 -2 -8 -10 -17 -17 -16 -13
-17 -12 -4 4 13 16 21 21 21 13z m-1570 -10 c0 -2 -7 -7 -16 -10 -8 -3 -12 -2
-9 4 6 10 25 14 25 6z m440 -11 c0 -9 -85 -49 -109 -52 -13 -1 -22 0 -20 2 3
2 109 48 127 54 1 1 2 -1 2 -4z m1838 -11 c-9 -9 -21 -13 -27 -9 -16 10 -3 25
22 25 20 0 20 -1 5 -16z m122 -5 c0 -5 -7 -9 -15 -9 -8 0 -15 7 -15 15 0 9 6
12 15 9 8 -4 15 -10 15 -15z m-1840 1 c0 -11 -48 -25 -57 -16 -3 3 5 10 18 15
32 13 39 13 39 1z m590 -24 c0 -3 -4 -8 -10 -11 -5 -3 -10 -1 -10 4 0 6 5 11
10 11 6 0 10 -2 10 -4z m1038 -13 c-10 -2 -28 -2 -40 0 -13 2 -5 4 17 4 22 1
32 -1 23 -4z m-1471 -19 c-3 -3 -12 -4 -19 -1 -8 3 -5 6 6 6 11 1 17 -2 13 -5z
m218 -30 c-24 -19 -106 -56 -112 -50 -4 3 114 64 127 65 3 0 -4 -7 -15 -15z
m2151 -55 c3 -5 -2 -16 -10 -25 -19 -18 -20 -34 -5 -68 9 -19 9 -29 1 -39 -14
-17 -6 -27 23 -27 21 0 45 -17 45 -31 0 -4 -17 -9 -37 -11 -32 -2 -39 -7 -41
-27 -5 -34 7 -123 18 -141 9 -13 11 -13 20 0 5 8 10 25 10 37 0 25 17 40 31
26 14 -14 21 -67 10 -82 -5 -7 -19 -15 -32 -16 -13 -1 -27 -3 -31 -4 -5 0 -8
-12 -8 -26 0 -20 -5 -25 -25 -25 -29 0 -34 20 -39 160 -1 52 -8 105 -14 116
-9 17 -9 24 2 33 22 19 29 90 11 117 -8 13 -15 28 -15 33 0 19 74 19 86 0z
m158 -75 c3 -9 6 -27 6 -42 0 -14 10 -56 21 -92 24 -72 21 -128 -7 -151 -12
-10 -18 -9 -31 3 -16 16 -17 32 -14 221 1 72 11 98 25 61z m-2514 -44 c-19
-11 -42 -19 -50 -19 -8 0 3 9 25 19 53 24 70 24 25 0z m1188 -39 c-13 -11 -19
-23 -15 -27 4 -5 13 -2 18 6 9 13 10 13 6 0 -2 -9 -16 -15 -34 -15 -17 0 -40
-9 -52 -19 -22 -20 -25 -18 -15 8 3 9 14 16 24 16 10 0 29 15 42 33 37 53 43
57 46 36 2 -11 -6 -28 -20 -38z m1069 -157 c-3 -3 -12 -4 -19 -1 -8 3 -5 6 6
6 11 1 17 -2 13 -5z m-737 -54 c0 -5 -4 -10 -10 -10 -5 0 -10 5 -10 10 0 6 5
10 10 10 6 0 10 -4 10 -10z m647 -77 c-3 -10 -5 -2 -5 17 0 19 2 27 5 18 2
-10 2 -26 0 -35z m-1065 -210 c10 -9 18 -20 18 -24 0 -12 -31 -4 -41 12 -20
31 -6 39 23 12z m61 -58 c-3 -9 -8 -14 -10 -11 -3 3 -2 9 2 15 9 16 15 13 8
-4z m-133 -46 c0 -6 -4 -7 -10 -4 -5 3 -10 11 -10 16 0 6 5 7 10 4 6 -3 10
-11 10 -16z m98 -43 c-2 -14 -11 -21 -25 -22 -13 -1 -23 3 -23 7 0 5 -6 9 -14
9 -7 0 -16 9 -19 21 -5 18 -2 20 19 15 18 -5 24 -2 24 10 0 15 2 15 20 -1 12
-11 20 -28 18 -39z m37 -6 c3 -5 1 -10 -4 -10 -6 0 -11 5 -11 10 0 6 2 10 4
10 3 0 8 -4 11 -10z m-3096 -47 c-14 -26 -14 -26 -17 -4 -5 34 6 57 20 43 9
-9 8 -18 -3 -39z m-69 7 c0 -5 -5 -10 -11 -10 -5 0 -7 5 -4 10 3 6 8 10 11 10
2 0 4 -4 4 -10z m102 -55 c2 -22 0 -34 -6 -32 -14 4 -21 67 -8 67 6 0 12 -16
14 -35z m1023 21 l50 -14 -37 -16 c-21 -9 -50 -16 -65 -16 -40 0 -156 -63
-169 -91 -6 -13 -14 -41 -17 -62 l-6 -38 19 23 19 23 3 -50 c1 -27 3 -59 4
-70 1 -11 2 -25 3 -31 2 -26 99 -129 129 -136 22 -6 49 21 65 65 4 9 11 17 16
17 12 0 34 66 35 104 1 35 25 47 33 17 3 -12 12 -21 19 -21 8 0 14 -5 14 -11
0 -6 -6 -9 -12 -6 -9 3 -14 -10 -15 -45 -1 -27 -7 -64 -13 -83 -6 -19 -8 -40
-4 -47 5 -7 9 -20 9 -28 1 -8 2 -25 3 -37 1 -13 7 -23 14 -23 6 0 20 -8 31
-17 15 -14 37 -18 101 -18 62 -1 93 -6 130 -23 58 -26 132 -29 165 -6 23 16
24 16 42 -7 9 -13 15 -27 13 -31 -3 -4 -5 -40 -5 -80 0 -75 -20 -138 -44 -138
-7 0 -26 -7 -41 -15 -42 -22 -138 -19 -193 5 -99 45 -148 73 -189 111 -24 21
-47 39 -50 39 -4 0 -18 10 -32 23 -14 12 -42 35 -62 51 -33 25 -108 116 -108
132 0 3 -10 15 -22 26 -13 11 -16 16 -8 12 9 -4 6 3 -6 17 -29 32 -58 123 -50
155 4 16 3 23 -3 20 -5 -4 -13 18 -17 50 -18 146 39 256 142 273 27 5 51 9 54
10 3 0 28 -5 55 -13z m-1119 -41 c9 -8 24 -15 33 -15 10 0 24 -6 30 -14 10
-12 8 -17 -10 -27 -16 -8 -24 -9 -27 -1 -2 6 -9 9 -16 6 -8 -3 -16 3 -19 13
-2 10 -8 26 -12 36 -9 21 1 22 21 2z m131 -57 c-3 -8 -6 -5 -6 6 -1 11 2 17 5
13 3 -3 4 -12 1 -19z m1453 -349 c17 -34 28 -64 25 -67 -3 -3 -5 -1 -5 5 0 6
-13 16 -28 22 -39 16 -70 101 -38 101 8 0 29 -28 46 -61z m281 -161 c8 -14 14
-18 17 -10 10 31 18 6 16 -54 -2 -65 -17 -93 -51 -94 -14 0 -53 48 -53 66 0 7
-12 14 -27 16 -16 2 -28 8 -28 15 0 6 -3 15 -7 19 -11 10 11 34 31 34 9 0 21
4 27 9 8 8 30 16 56 20 4 0 13 -9 19 -21z m369 -183 c0 -8 -4 -17 -10 -20 -6
-4 -10 5 -10 20 0 15 4 24 10 20 6 -3 10 -12 10 -20z m1559 -39 c-9 -8 -10 -7
-5 7 3 10 7 24 7 30 1 7 3 4 6 -7 3 -10 -1 -23 -8 -30z m-3709 8 c0 -7 -13
-11 -32 -9 -41 3 -40 3 -35 13 8 12 67 8 67 -4z m3687 0 c-3 -3 -12 -4 -19 -1
-8 3 -5 6 6 6 11 1 17 -2 13 -5z m-3687 -34 c0 -5 -7 -10 -16 -10 -8 0 -12 5
-9 10 3 6 10 10 16 10 5 0 9 -4 9 -10z m295 -35 c-1 -14 2 -28 6 -31 5 -3 2
-20 -7 -37 -14 -30 -14 -31 1 -12 16 19 17 19 13 1 -1 -10 -14 -23 -27 -28
-23 -8 -23 -7 -18 34 5 43 22 98 31 98 2 0 3 -11 1 -25z m75 -5 c0 -14 -28 -1
-34 16 -4 12 -2 12 14 4 11 -6 20 -15 20 -20z m-32 -34 c-4 -46 -20 -38 -22
11 -2 35 0 40 11 31 8 -6 13 -25 11 -42z m76 8 c9 -8 16 -20 16 -26 0 -6 -9
-1 -20 12 -29 33 -25 44 4 14z m-24 -15 c0 -5 -4 -9 -10 -9 -5 0 -10 7 -10 16
0 8 5 12 10 9 6 -3 10 -10 10 -16z m3642 -11 c-15 -15 -26 -4 -18 18 5 13 9
15 18 6 9 -9 9 -15 0 -24z m-4002 2 c0 -5 -5 -10 -11 -10 -5 0 -7 5 -4 10 3 6
8 10 11 10 2 0 4 -4 4 -10z m-6 -51 c-3 -5 -10 -7 -15 -3 -5 3 -7 10 -3 15 3
5 10 7 15 3 5 -3 7 -10 3 -15z m403 -31 c-3 -7 -5 -2 -5 12 0 14 2 19 5 13 2
-7 2 -19 0 -25z m3176 -7 c4 -1 7 -8 7 -16 0 -8 3 -15 8 -15 4 0 8 -19 8 -42
1 -24 -1 -37 -3 -30 -3 6 -11 12 -18 12 -8 0 -18 8 -24 17 -6 12 -22 17 -50
18 -23 0 -41 -3 -41 -7 0 -5 -4 -8 -10 -8 -5 0 -10 7 -10 15 0 18 -16 20 -23
3 -3 -7 -6 -2 -6 10 -1 15 4 22 12 19 6 -2 23 4 36 15 18 14 35 17 65 14 23
-3 44 -5 49 -5z m-3539 -33 c-4 -6 -10 -5 -15 3 -14 22 -10 33 6 19 8 -7 12
-17 9 -22z m373 -10 c-3 -7 -5 -2 -5 12 0 14 2 19 5 13 2 -7 2 -19 0 -25z
m-205 0 c-7 -7 -12 -8 -12 -2 0 14 12 26 19 19 2 -3 -1 -11 -7 -17z m308 -41
c0 -5 -4 -5 -10 -2 -5 3 -10 14 -10 23 0 15 2 15 10 2 5 -8 10 -19 10 -23z
m3015 2 c-8 -12 -35 -12 -35 0 0 11 22 20 33 14 4 -2 5 -9 2 -14z m108 -10
c-5 -16 -8 -18 -14 -7 -13 20 -11 38 5 32 8 -3 12 -13 9 -25z m-263 11 c0 -12
-24 -12 -60 0 -21 7 -19 8 18 9 23 1 42 -3 42 -9z m50 -20 c0 -5 -2 -10 -4
-10 -3 0 -8 5 -11 10 -3 6 -1 10 4 10 6 0 11 -4 11 -10z m-3502 -58 c2 -7 -2
-10 -12 -6 -9 3 -16 11 -16 16 0 13 23 5 28 -10z m3682 14 c0 -3 -4 -8 -10
-11 -5 -3 -10 -1 -10 4 0 6 5 11 10 11 6 0 10 -2 10 -4z m-3390 -16 c0 -5 -2
-10 -4 -10 -3 0 -8 5 -11 10 -3 6 -1 10 4 10 6 0 11 -4 11 -10z m370 -20 c0
-5 -2 -10 -4 -10 -3 0 -8 5 -11 10 -3 6 -1 10 4 10 6 0 11 -4 11 -10z m-650
-25 c0 -11 -29 -11 -33 -1 -4 10 1 12 14 9 10 -3 19 -7 19 -8z m208 -25 c0
-17 -4 -28 -9 -25 -10 7 -12 38 -2 48 10 10 10 10 11 -23z m249 4 c-3 -3 -12
-4 -19 -1 -8 3 -5 6 6 6 11 1 17 -2 13 -5z m2816 -61 c-7 -2 -19 -2 -25 0 -7
3 -2 5 12 5 14 0 19 -2 13 -5z m1397 -44 c-16 -28 -32 -24 -18 6 6 13 15 22
19 19 5 -3 4 -14 -1 -25z m-50 1 c0 -5 -7 -10 -15 -10 -8 0 -15 5 -15 10 0 6
7 10 15 10 8 0 15 -4 15 -10z m-2870 -70 c18 -12 2 -12 -25 0 -13 6 -15 9 -5
9 8 0 22 -4 30 -9z m-1376 -16 c9 -3 16 -11 16 -16 0 -6 -7 -8 -14 -5 -10 4
-13 1 -9 -9 6 -17 -8 -19 -24 -3 -9 9 -8 15 0 25 14 16 12 15 31 8z m91 -18
c8 -8 15 -21 15 -28 0 -11 -2 -11 -9 0 -4 8 -12 13 -17 12 -4 -1 -11 6 -14 16
-5 14 -8 15 -15 4 -6 -9 1 -22 22 -39 30 -25 30 -26 8 -26 -13 0 -21 3 -19 7
3 4 -4 13 -16 20 -11 7 -20 23 -20 36 0 18 4 22 25 18 14 -3 32 -11 40 -20z
m35 20 c0 -3 -4 -8 -10 -11 -5 -3 -10 -1 -10 4 0 6 5 11 10 11 6 0 10 -2 10
-4z m64 -43 c3 -6 -2 -14 -10 -17 -7 -3 -13 0 -11 6 1 6 -8 17 -20 23 -13 7
-20 14 -17 17 7 8 53 -15 58 -29z m86 -25 c10 -6 7 -7 -10 -2 -14 3 -32 11
-40 16 -10 6 -7 7 10 2 14 -3 32 -11 40 -16z m-279 -9 c19 -16 20 -18 4 -10
-34 17 -51 31 -39 31 7 0 22 -9 35 -21z m34 11 c3 -6 -1 -7 -9 -4 -18 7 -21
14 -7 14 6 0 13 -4 16 -10z m-60 -38 c-2 -2 -13 2 -24 10 -12 8 -18 17 -15 21
3 3 14 -2 25 -11 10 -9 17 -18 14 -20z m195 -3 c0 -11 -4 -17 -10 -14 -5 3
-10 15 -10 26 0 11 5 17 10 14 6 -3 10 -15 10 -26z m-65 1 c3 -6 -1 -7 -9 -4
-18 7 -21 14 -7 14 6 0 13 -4 16 -10z m245 0 c0 -5 -2 -10 -4 -10 -3 0 -8 5
-11 10 -3 6 -1 10 4 10 6 0 11 -4 11 -10z m-37 -23 c4 3 7 4 7 0 0 -18 -21
-14 -30 5 -10 21 -10 21 3 6 8 -10 17 -15 20 -11z m6365 -39 c-25 -76 -32 -84
-83 -92 -34 -5 -37 -4 -17 6 24 12 30 28 10 28 -20 -1 -49 -26 -40 -35 4 -5 1
-5 -6 -1 -9 6 8 29 60 82 39 41 78 74 84 74 9 0 7 -18 -8 -62z m-6278 27 c0
-12 -29 -3 -34 10 -4 13 -2 14 14 5 11 -6 20 -13 20 -15z m-118 -26 c-33 -6
-34 -6 -27 13 5 13 11 13 30 4 l25 -11 -28 -6z m-142 11 c0 -5 -4 -10 -10 -10
-5 0 -10 5 -10 10 0 6 5 10 10 10 6 0 10 -4 10 -10z m64 1 c-2 -2 1 -10 7 -17
8 -10 2 -9 -20 2 -37 19 -39 22 -7 20 13 0 22 -3 20 -5z m221 -1 c3 -5 1 -10
-4 -10 -6 0 -11 5 -11 10 0 6 2 10 4 10 3 0 8 -4 11 -10z m-475 -14 c0 -3 -4
-8 -10 -11 -5 -3 -10 -1 -10 4 0 6 5 11 10 11 6 0 10 -2 10 -4z m81 -24 c-16
-5 -41 5 -41 17 0 7 10 6 26 -1 15 -7 21 -14 15 -16z m61 21 c-10 -4 -10 -8
-1 -19 8 -9 8 -14 1 -14 -6 0 -14 5 -18 11 -4 8 -9 7 -15 -2 -6 -10 -9 -10 -9
-2 0 13 28 33 45 32 6 0 4 -3 -3 -6z m255 1 c-3 -3 -12 -4 -19 -1 -8 3 -5 6 6
6 11 1 17 -2 13 -5z m128 -14 c3 -6 -1 -7 -9 -4 -18 7 -21 14 -7 14 6 0 13 -4
16 -10z m-296 -27 c2 -2 -3 -3 -11 -3 -9 0 -19 7 -22 16 -6 15 -4 15 11 3 10
-7 20 -15 22 -16z m32 10 c13 -15 12 -15 -8 -4 -24 12 -29 21 -14 21 5 0 15
-7 22 -17z m228 14 c-2 -1 -13 -9 -24 -17 -19 -14 -19 -14 -6 3 7 9 18 17 24
17 6 0 8 -1 6 -3z m-429 -37 c0 -11 -2 -20 -4 -20 -2 0 -6 9 -9 20 -3 11 -1
20 4 20 5 0 9 -9 9 -20z m317 -6 c10 4 14 4 10 0 -4 -4 -2 -13 5 -21 23 -29
-1 -22 -33 8 -19 18 -26 27 -17 20 10 -7 26 -10 35 -7z m323 -69 c0 -3 -16 4
-35 15 -19 11 -35 18 -35 15 0 -2 -11 6 -25 19 -43 40 -27 38 35 -4 33 -22 60
-43 60 -45z m-475 65 c3 -5 1 -10 -4 -10 -19 0 -12 -20 7 -20 15 -1 15 -2 -2
-15 -11 -8 -27 -15 -35 -14 -12 0 -11 2 3 8 18 7 18 8 -5 24 -18 14 -20 17 -6
17 9 0 17 5 17 10 0 6 4 10 9 10 6 0 13 -4 16 -10z m71 -21 c3 -6 -5 -3 -20 6
-14 10 -26 19 -26 22 0 7 39 -17 46 -28z m6297 -29 c22 -1 22 -1 2 -16 -22
-17 -122 -64 -136 -64 -22 0 -5 23 49 65 42 33 58 41 60 30 2 -8 13 -15 25
-15z m-6258 10 c3 -5 2 -10 -4 -10 -5 0 -13 5 -16 10 -3 6 -2 10 4 10 5 0 13
-4 16 -10z m-180 -20 c3 -5 2 -10 -4 -10 -5 0 -13 5 -16 10 -3 6 -2 10 4 10 5
0 13 -4 16 -10z m173 -50 c13 -12 21 -24 18 -27 -3 -3 -13 2 -22 11 -20 20
-32 13 -14 -9 8 -10 9 -15 2 -15 -14 0 -34 35 -25 43 3 4 -5 16 -18 27 l-24
21 30 -15 c17 -8 40 -24 53 -36z m-328 24 c0 -8 -5 -12 -10 -9 -6 4 -8 11 -5
16 9 14 15 11 15 -7z m235 6 c3 -5 1 -10 -4 -10 -6 0 -11 5 -11 10 0 6 2 10 4
10 3 0 8 -4 11 -10z m500 0 c3 -5 2 -10 -4 -10 -5 0 -13 5 -16 10 -3 6 -2 10
4 10 5 0 13 -4 16 -10z m-591 -9 c3 -5 -1 -11 -9 -15 -15 -6 -29 7 -18 18 9 9
21 8 27 -3z m631 -19 c-3 -3 -11 0 -18 7 -9 10 -8 11 6 5 10 -3 15 -9 12 -12z
m-535 -14 c0 -13 -23 -5 -28 10 -2 7 2 10 12 6 9 -3 16 -11 16 -16z m-6 -58
c13 -1 51 -50 38 -50 -5 0 -15 7 -22 15 -7 8 -17 15 -23 15 -6 0 2 -14 19 -31
23 -26 25 -29 7 -20 -29 15 -33 14 -33 -4 0 -13 -2 -14 -14 -3 -11 10 -11 16
-2 27 9 12 8 13 -7 8 -10 -4 -25 -7 -34 -7 -9 0 -13 -6 -9 -15 3 -8 -3 -20
-14 -28 -16 -11 -18 -19 -10 -46 6 -22 6 -31 -1 -29 -6 2 -10 8 -10 13 0 6
-10 13 -21 18 -20 7 -20 8 -3 27 17 19 17 21 -1 43 -19 22 -19 22 2 5 26 -22
62 -25 45 -4 -8 10 -9 16 -1 21 6 3 8 11 5 16 -4 5 3 5 18 0 13 -5 29 -6 36
-2 15 10 4 39 -17 46 -10 2 -23 14 -30 25 -10 16 -3 14 29 -10 23 -16 47 -30
53 -30z m7 24 c8 -10 8 -14 0 -14 -6 0 -11 5 -11 10 0 6 -6 10 -14 10 -8 0
-17 4 -20 9 -9 14 32 1 45 -15z m34 16 c3 -5 -1 -10 -10 -10 -9 0 -13 5 -10
10 3 6 8 10 10 10 2 0 7 -4 10 -10z m6735 -22 c18 -5 13 -6 -15 -2 -22 3 -47
10 -55 15 -16 10 24 3 70 -13z m-6099 -13 c24 -14 40 -25 36 -25 -11 0 -87 39
-87 45 0 8 7 6 51 -20z m-735 -12 c-6 -6 -36 9 -36 18 0 5 9 4 20 -3 10 -7 18
-14 16 -15z m124 17 c0 -5 -2 -10 -4 -10 -3 0 -8 5 -11 10 -3 6 -1 10 4 10 6
0 11 -4 11 -10z m-176 -16 c6 -15 4 -15 -11 -3 -10 7 -20 15 -22 16 -2 2 3 3
11 3 9 0 19 -7 22 -16z m171 -22 c-6 -6 -35 18 -35 29 0 5 9 1 20 -8 11 -9 17
-19 15 -21z m1974 -4 c-4 -24 -4 -46 -1 -50 4 -4 36 -8 71 -10 36 -1 65 -7 68
-14 2 -6 0 -33 -4 -59 l-8 -48 -35 31 c-19 18 -38 32 -43 32 -4 0 -23 16 -43
35 -19 19 -41 35 -48 35 -8 0 -16 7 -19 14 -4 10 -1 13 8 10 9 -4 22 7 36 30
11 20 22 36 24 36 1 0 -1 -19 -6 -42z m4814 35 c-7 -2 -21 -2 -30 0 -10 3 -4
5 12 5 17 0 24 -2 18 -5z m-6968 -33 c3 -5 -1 -10 -9 -10 -9 0 -16 5 -16 10 0
6 4 10 9 10 6 0 13 -4 16 -10z m870 -8 c-3 -3 -11 0 -18 7 -9 10 -8 11 6 5 10
-3 15 -9 12 -12z m-655 -27 c0 -8 -6 -15 -14 -15 -20 0 -29 17 -14 23 22 9 28
7 28 -8z m700 -5 c0 -5 -9 -6 -20 -3 -11 3 -20 9 -20 13 0 5 9 6 20 3 11 -3
20 -9 20 -13z m-950 -16 c0 -8 -4 -12 -10 -9 -5 3 -10 10 -10 16 0 5 5 9 10 9
6 0 10 -7 10 -16z m130 -25 c0 -4 -10 -5 -22 -1 -14 3 -19 1 -14 -6 5 -8 2
-10 -8 -6 -18 7 -22 24 -6 24 6 0 10 7 10 17 0 14 2 14 20 -2 11 -10 20 -21
20 -26z m50 11 c0 -5 -2 -10 -4 -10 -3 0 -8 5 -11 10 -3 6 -1 10 4 10 6 0 11
-4 11 -10z m140 -16 c0 -8 -4 -14 -10 -14 -5 0 -10 9 -10 21 0 11 5 17 10 14
6 -3 10 -13 10 -21z m185 15 c44 1 56 -2 48 -10 -10 -10 -213 -22 -213 -13 0
24 15 31 58 26 26 -3 74 -4 107 -3z m250 -7 c-8 -8 -86 -10 -110 -3 -13 4 1 8
35 11 56 5 85 2 75 -8z m123 7 c9 -1 -5 -5 -33 -9 -58 -8 -98 1 -45 11 19 3
41 5 48 3 8 -2 21 -5 30 -5z m-628 -10 c0 -5 4 -7 10 -4 6 3 7 -1 4 -10 -4 -9
-7 -15 -8 -13 -1 2 -8 11 -15 21 -9 11 -10 17 -2 17 6 0 11 -5 11 -11z m366
-4 c17 -16 14 -18 -10 -9 -9 3 -16 10 -16 15 0 13 9 11 26 -6z m-392 -24 c-2
-3 -12 3 -22 13 -16 17 -16 18 5 5 12 -7 20 -15 17 -18z m833 23 c-3 -3 -12
-4 -19 -1 -8 3 -5 6 6 6 11 1 17 -2 13 -5z m103 2 c0 -8 -60 -12 -72 -4 -8 4
4 8 30 8 23 0 42 -2 42 -4z m88 -17 c-12 -7 -24 -7 -35 0 -15 9 -12 10 17 10
29 0 32 -1 18 -10z m262 -9 c0 -5 -7 -10 -16 -10 -11 0 -14 -6 -9 -22 7 -22 6
-22 -7 -4 -17 22 -42 17 -78 -17 -28 -26 -73 -42 -67 -24 2 6 18 16 36 22 18
6 29 14 25 18 -4 4 0 7 8 7 9 0 21 6 28 14 6 8 24 17 38 19 15 2 30 5 35 6 4
0 7 -3 7 -9z m3830 -1 c0 -6 9 -8 20 -4 12 4 26 0 36 -9 8 -9 27 -16 42 -16
34 0 57 -14 48 -29 -11 -16 -37 -13 -73 8 -17 11 -47 23 -66 26 -32 6 -49 35
-20 35 7 0 13 -5 13 -11z m-3780 -16 c0 28 48 22 60 -8 5 -14 17 -26 27 -27
10 -1 32 -3 48 -4 36 -3 135 -31 144 -40 3 -4 -12 -4 -34 0 -22 4 -49 9 -60
11 -11 2 -20 4 -20 5 0 1 -15 3 -32 4 -35 4 -41 -2 -21 -22 16 -16 -4 -16 -21
1 -11 10 -13 9 -8 -5 11 -30 -7 -20 -31 18 -13 20 -21 42 -18 50 3 8 -1 14 -8
14 -23 0 -24 -22 -4 -58 l18 -33 -35 27 c-27 20 -35 34 -35 57 0 29 1 30 15
11 13 -17 14 -17 15 -1z m-1375 -4 c-4 -6 1 -17 11 -26 17 -14 17 -14 -5 -1
-30 18 -39 38 -16 38 9 0 13 -5 10 -11z m295 -9 c-20 -13 -33 -13 -25 0 3 6
14 10 23 10 15 0 15 -2 2 -10z m1037 -61 c2 -12 -1 -18 -7 -14 -5 3 -10 16
-10 27 0 26 13 16 17 -13z m-207 -7 c-8 -3 -22 -10 -30 -17 -8 -8 -31 -18 -50
-23 -25 -7 -29 -10 -12 -11 12 -1 22 -3 22 -5 0 -2 3 -13 7 -23 5 -15 4 -16
-8 -7 -8 6 -25 15 -38 19 -21 6 -23 5 -18 -14 5 -20 2 -22 -22 -16 -22 5 -30
1 -41 -20 -8 -14 -19 -24 -26 -21 -8 3 -11 -1 -7 -11 5 -12 1 -14 -15 -8 -16
5 -22 2 -22 -10 0 -9 -4 -14 -8 -11 -14 8 -99 -38 -95 -51 3 -8 -4 -10 -21 -7
-14 2 -26 0 -26 -5 0 -5 10 -12 23 -14 17 -3 15 -5 -8 -6 -20 -1 -34 6 -43 19
-7 11 -19 20 -27 20 -8 0 -15 5 -15 10 0 6 13 8 31 5 19 -4 28 -2 24 5 -3 5 2
11 12 11 46 3 93 27 93 47 0 11 3 12 13 4 9 -8 21 -5 45 10 18 11 32 24 32 28
0 5 15 12 33 15 17 4 39 14 47 22 22 22 143 80 155 74 5 -2 2 -7 -5 -9z m124
-5 c-3 -9 -12 -13 -20 -10 -17 6 -18 -11 -3 -40 9 -16 9 -22 0 -25 -14 -5 -15
-42 -1 -42 6 0 9 -12 9 -27 -1 -19 -3 -22 -6 -10 -3 11 -10 16 -20 13 -8 -3
-17 -6 -19 -6 -2 0 -4 -7 -4 -16 0 -8 -4 -12 -10 -9 -6 3 -10 -4 -10 -17 -1
-22 -1 -22 -15 -4 -14 18 -15 18 -15 2 0 -10 -5 -14 -11 -10 -8 4 -9 0 -4 -15
5 -18 2 -21 -19 -21 -16 0 -26 -6 -26 -15 0 -8 -5 -15 -11 -15 -5 0 -7 5 -4
10 3 6 1 10 -6 10 -6 0 -9 -8 -6 -20 5 -21 -16 -45 -32 -36 -5 3 -12 0 -15 -6
-5 -11 -7 -11 -12 0 -3 6 -11 9 -17 6 -7 -4 7 11 31 33 46 43 51 57 26 71 -9
5 -14 14 -10 20 9 15 36 3 37 -17 1 -14 2 -13 6 2 2 9 9 15 14 11 5 -3 16 2
25 10 8 9 25 16 37 16 20 1 20 2 4 11 -9 6 -15 14 -12 20 9 13 42 11 49 -3 3
-7 3 -3 0 9 -4 19 -2 22 12 16 14 -5 16 -3 11 10 -4 9 -10 25 -13 35 -5 14 -4
14 5 2 14 -20 23 -7 15 24 -3 14 -13 26 -21 26 -9 0 -13 -6 -9 -15 3 -8 1 -15
-4 -15 -12 0 -14 40 -2 41 35 3 65 9 70 13 9 10 13 0 6 -17z m-1319 -7 c3 -5
1 -10 -4 -10 -6 0 -11 5 -11 10 0 6 2 10 4 10 3 0 8 -4 11 -10z m1760 0 c-3
-5 -10 -10 -16 -10 -5 0 -9 5 -9 10 0 6 7 10 16 10 8 0 12 -4 9 -10z m-385 -4
c0 -3 -4 -8 -10 -11 -5 -3 -10 -1 -10 4 0 6 5 11 10 11 6 0 10 -2 10 -4z m50
-26 c6 -11 8 -20 6 -20 -3 0 -10 9 -16 20 -6 11 -8 20 -6 20 3 0 10 -9 16 -20z
m170 0 c0 -5 -4 -12 -10 -15 -5 -3 -10 -4 -10 -1 0 2 -3 12 -6 20 -5 12 -2 15
10 10 9 -3 16 -10 16 -14z m-270 0 c0 -5 -4 -10 -10 -10 -5 0 -10 5 -10 10 0
6 5 10 10 10 6 0 10 -4 10 -10z m30 -5 c10 -12 10 -15 -4 -15 -9 0 -16 7 -16
15 0 8 2 15 4 15 2 0 9 -7 16 -15z m-1390 -5 c0 -5 -7 -10 -16 -10 -8 0 -12 5
-9 10 3 6 10 10 16 10 5 0 9 -4 9 -10z m1660 -10 c0 -5 -7 -10 -15 -10 -8 0
-15 5 -15 10 0 6 7 10 15 10 8 0 15 -4 15 -10z m-1200 -14 c-7 -7 -13 -7 -20
0 -6 6 -3 10 10 10 13 0 16 -4 10 -10z m975 4 c3 -5 1 -10 -4 -10 -6 0 -11 5
-11 10 0 6 2 10 4 10 3 0 8 -4 11 -10z m-26 -16 c8 -7 -11 -24 -21 -18 -6 4
-17 -1 -25 -11 -12 -17 -13 -17 -13 -2 0 9 5 17 11 17 6 0 8 7 5 16 -5 12 -1
14 17 8 12 -3 24 -8 26 -10z m121 6 c0 -5 -2 -10 -4 -10 -3 0 -8 5 -11 10 -3
6 -1 10 4 10 6 0 11 -4 11 -10z m50 -21 c0 -6 -4 -7 -10 -4 -5 3 -10 11 -10
16 0 6 5 7 10 4 6 -3 10 -11 10 -16z m4706 -46 c-2 -3 -11 -3 -19 -1 -12 2
-11 8 2 38 l15 35 4 -33 c2 -19 1 -36 -2 -39z m-4829 25 c-3 -8 -6 -5 -6 6 -1
11 2 17 5 13 3 -3 4 -12 1 -19z m283 12 c0 -5 -2 -10 -4 -10 -3 0 -8 5 -11 10
-3 6 -1 10 4 10 6 0 11 -4 11 -10z m190 0 c0 -5 -19 -9 -42 -9 -40 1 -41 2
-13 9 44 11 55 11 55 0z m-1030 -7 c0 -5 -5 -15 -10 -23 -7 -12 -9 -10 -7 8 1
19 17 33 17 15z m648 -18 c-3 -3 -9 2 -12 12 -6 14 -5 15 5 6 7 -7 10 -15 7
-18z m-108 5 c0 -5 -10 -10 -22 -10 -19 0 -20 2 -8 10 19 13 30 13 30 0z m357
4 c-3 -3 -12 -4 -19 -1 -8 3 -5 6 6 6 11 1 17 -2 13 -5z m483 -4 c0 -5 -2 -10
-4 -10 -3 0 -8 5 -11 10 -3 6 -1 10 4 10 6 0 11 -4 11 -10z m-1084 -13 c3 -2
-9 -4 -26 -5 -16 0 -30 4 -30 9 0 9 47 5 56 -4z m1394 3 c0 -5 -2 -10 -4 -10
-3 0 -8 5 -11 10 -3 6 -1 10 4 10 6 0 11 -4 11 -10z m-1070 -10 c0 -5 -2 -10
-4 -10 -3 0 -8 5 -11 10 -3 6 -1 10 4 10 6 0 11 -4 11 -10z m869 -6 c2 -2 -18
-4 -45 -3 -36 0 -44 3 -29 9 18 7 63 3 74 -6z m-1319 -4 c-8 -5 -19 -10 -25
-10 -5 0 -3 5 5 10 8 5 20 10 25 10 6 0 3 -5 -5 -10z m1200 0 c8 -5 11 -10 5
-10 -5 0 -17 5 -25 10 -8 5 -10 10 -5 10 6 0 17 -5 25 -10z m170 0 c0 -13 -11
-13 -30 0 -12 8 -11 10 8 10 12 0 22 -4 22 -10z m187 4 c-3 -3 -12 -4 -19 -1
-8 3 -5 6 6 6 11 1 17 -2 13 -5z m-1307 -14 c0 -5 -2 -10 -4 -10 -3 0 -8 5
-11 10 -3 6 -1 10 4 10 6 0 11 -4 11 -10z m140 -12 c0 -19 -2 -20 -10 -8 -13
19 -13 30 0 30 6 0 10 -10 10 -22z m22 -10 c-8 -8 -9 -4 -5 13 4 13 8 18 11
10 2 -7 -1 -18 -6 -23z m1028 16 c0 -2 -11 -4 -25 -4 -14 0 -25 4 -25 9 0 4
11 6 25 3 14 -2 25 -6 25 -8z m-417 -14 c-3 -11 -9 -20 -14 -20 -11 0 -11 3
-3 24 9 23 23 20 17 -4z m-1698 -10 c-3 -5 -10 -10 -16 -10 -5 0 -9 5 -9 10 0
6 7 10 16 10 8 0 12 -4 9 -10z m945 -4 c0 -8 6 -17 13 -19 9 -4 9 -6 0 -6 -7
-1 -17 8 -23 19 -7 14 -7 20 0 20 5 0 10 -6 10 -14z m1242 1 c7 -7 26 -18 42
-25 16 -7 26 -15 24 -18 -3 -2 -18 2 -34 11 -16 8 -35 15 -42 15 -7 0 -11 4
-8 9 4 5 0 12 -6 14 -9 4 -9 6 -1 6 6 1 18 -5 25 -12z m-2507 -7 c3 -6 -1 -7
-9 -4 -18 7 -21 14 -7 14 6 0 13 -4 16 -10z m942 -12 c-3 -8 -6 -5 -6 6 -1 11
2 17 5 13 3 -3 4 -12 1 -19z m610 0 c-3 -8 -6 -5 -6 6 -1 11 2 17 5 13 3 -3 4
-12 1 -19z m-172 3 c3 -5 1 -12 -5 -16 -5 -3 -10 1 -10 9 0 18 6 21 15 7z
m-1319 -16 c12 -9 14 -14 6 -15 -7 0 -20 7 -28 15 -20 19 -4 20 22 0z m854 5
c0 -5 -2 -10 -4 -10 -3 0 -8 5 -11 10 -3 6 -1 10 4 10 6 0 11 -4 11 -10z m270
-5 c0 -8 -4 -15 -10 -15 -5 0 -10 7 -10 15 0 8 5 15 10 15 6 0 10 -7 10 -15z
m-150 -2 c0 -14 -19 -38 -25 -32 -8 8 5 39 16 39 5 0 9 -3 9 -7z m-660 -7 c0
-3 -4 -8 -10 -11 -5 -3 -10 -1 -10 4 0 6 5 11 10 11 6 0 10 -2 10 -4z m77 -2
c-3 -3 -12 -4 -19 -1 -8 3 -5 6 6 6 11 1 17 -2 13 -5z m263 -15 c0 -17 -5 -20
-20 -16 -17 4 -20 2 -15 -14 5 -14 1 -19 -12 -20 -87 -7 -90 -8 -73 -19 11 -7
7 -10 -18 -10 -18 0 -42 -4 -52 -10 -24 -13 -77 -2 -84 17 -5 12 -1 14 20 9
17 -5 30 -3 35 5 6 10 11 10 22 0 12 -10 17 -9 24 1 8 14 87 43 111 41 6 0 12
5 12 12 0 12 14 19 43 24 4 0 7 -9 7 -20z m230 7 c0 -2 -7 -7 -16 -10 -8 -3
-12 -2 -9 4 6 10 25 14 25 6z m-129 -19 c-1 -12 -15 -9 -19 4 -3 6 1 10 8 8 6
-3 11 -8 11 -12z m1795 -9 l19 -21 -27 18 c-29 18 -34 25 -20 25 5 0 17 -10
28 -22z m-881 2 c-3 -5 -11 -10 -16 -10 -6 0 -7 5 -4 10 3 6 11 10 16 10 6 0
7 -4 4 -10z m-425 -4 c0 -3 -4 -8 -10 -11 -5 -3 -10 -1 -10 4 0 6 5 11 10 11
6 0 10 -2 10 -4z m160 -6 c0 -5 -2 -10 -4 -10 -3 0 -8 5 -11 10 -3 6 -1 10 4
10 6 0 11 -4 11 -10z m-297 -7 c-7 -2 -21 -2 -30 0 -10 3 -4 5 12 5 17 0 24
-2 18 -5z m264 -40 c-3 -10 -5 -2 -5 17 0 19 2 27 5 18 2 -10 2 -26 0 -35z
m-1102 27 c3 -5 1 -10 -4 -10 -6 0 -11 5 -11 10 0 6 2 10 4 10 3 0 8 -4 11
-10z m85 -20 c-4 -3 -10 -16 -13 -30 -3 -16 -5 -10 -6 18 -1 36 1 41 13 30 8
-7 10 -15 6 -18z m-150 -10 c0 -5 -8 -10 -17 -10 -15 0 -16 2 -3 10 19 12 20
12 20 0z m669 -13 c0 -12 -3 -16 -6 -9 -2 6 -11 12 -19 12 -22 0 -17 16 6 17
15 1 20 -4 19 -20z m71 14 c0 -12 -20 -25 -27 -18 -7 7 6 27 18 27 5 0 9 -4 9
-9z m620 -1 c0 -5 -2 -10 -4 -10 -3 0 -8 5 -11 10 -3 6 -1 10 4 10 6 0 11 -4
11 -10z m1073 -39 c27 -46 14 -38 -18 12 -16 23 -22 37 -14 30 8 -6 22 -25 32
-42z m-2823 29 c0 -5 -2 -10 -4 -10 -3 0 -8 5 -11 10 -3 6 -1 10 4 10 6 0 11
-4 11 -10z m419 -11 c-16 -10 -23 -4 -14 10 3 6 11 8 17 5 6 -4 5 -9 -3 -15z
m81 11 c0 -5 -9 -10 -21 -10 -16 0 -19 -4 -14 -20 3 -11 2 -20 -4 -20 -20 0
-23 22 -5 41 18 20 44 26 44 9z m880 -4 c0 -3 -4 -8 -10 -11 -5 -3 -10 -1 -10
4 0 6 5 11 10 11 6 0 10 -2 10 -4z m-811 -15 c8 -5 9 -11 3 -15 -5 -3 -15 1
-22 9 -14 16 -3 20 19 6z m106 -1 c3 -5 1 -10 -4 -10 -6 0 -11 5 -11 10 0 6 2
10 4 10 3 0 8 -4 11 -10z m180 0 c3 -5 1 -10 -4 -10 -6 0 -11 5 -11 10 0 6 2
10 4 10 3 0 8 -4 11 -10z m172 -12 c-3 -8 -6 -5 -6 6 -1 11 2 17 5 13 3 -3 4
-12 1 -19z m198 4 c-3 -3 -11 0 -18 7 -9 10 -8 11 6 5 10 -3 15 -9 12 -12z
m405 -4 c0 -19 -2 -20 -10 -8 -13 19 -13 30 0 30 6 0 10 -10 10 -22z m1354 -4
c5 -14 4 -15 -9 -4 -17 14 -19 20 -6 20 5 0 12 -7 15 -16z m-2460 -23 c-7 -8
-35 9 -29 19 4 6 11 5 20 -3 7 -6 11 -14 9 -16z m396 19 c0 -5 -7 -10 -15 -10
-8 0 -15 5 -15 10 0 6 7 10 15 10 8 0 15 -4 15 -10z m70 0 c0 -17 -30 -24 -43
-10 -10 10 -7 11 12 5 16 -5 21 -4 17 4 -4 6 -2 11 3 11 6 0 11 -5 11 -10z
m-955 -10 c3 -6 -1 -7 -9 -4 -18 7 -21 14 -7 14 6 0 13 -4 16 -10z m373 -4
c-7 -8 -15 -12 -17 -11 -5 6 10 25 20 25 5 0 4 -6 -3 -14z m190 2 c-2 -6 -10
-14 -16 -16 -7 -2 -10 2 -6 12 7 18 28 22 22 4z m592 2 c0 -5 -2 -10 -4 -10
-3 0 -8 5 -11 10 -3 6 -1 10 4 10 6 0 11 -4 11 -10z m-930 -16 c0 -2 -7 -4
-15 -4 -8 0 -15 4 -15 10 0 5 7 7 15 4 8 -4 15 -8 15 -10z m75 6 c3 -5 1 -10
-4 -10 -6 0 -11 5 -11 10 0 6 2 10 4 10 3 0 8 -4 11 -10z m543 -25 c-3 -3 -9
2 -12 12 -6 14 -5 15 5 6 7 -7 10 -15 7 -18z m-402 -3 c-3 -6 -16 -7 -29 -4
-22 6 -22 6 3 12 28 8 35 6 26 -8z m1190 3 c-8 -8 -18 -15 -22 -15 -3 0 -1 7
6 15 7 8 17 15 22 15 5 0 3 -7 -6 -15z m-838 -20 c-3 -3 -9 2 -12 12 -6 14 -5
15 5 6 7 -7 10 -15 7 -18z m282 4 c0 -11 -3 -11 -24 -3 -23 9 -20 23 4 17 11
-3 20 -9 20 -14z m260 -1 c10 -6 6 -7 -15 -3 -16 4 -34 11 -40 17 -12 12 31 1
55 -14z m-197 5 c-7 -2 -19 -2 -25 0 -7 3 -2 5 12 5 14 0 19 -2 13 -5z m-1263
-16 c0 -2 -10 -12 -21 -23 -22 -19 -22 -19 -10 4 10 18 31 31 31 19z m3240
-28 c74 -23 42 -23 -44 0 -38 11 -76 17 -85 14 -13 -4 -14 -3 -1 5 16 12 47 7
130 -19z m-1995 11 c-27 -12 -35 -12 -35 0 0 6 12 10 28 9 24 0 25 -1 7 -9z
m-705 -20 c0 -5 -5 -10 -11 -10 -5 0 -7 5 -4 10 3 6 8 10 11 10 2 0 4 -4 4
-10z m-898 -27 c7 -16 13 -29 14 -31 1 -2 11 2 23 10 14 8 19 19 15 33 -4 17
-2 17 16 -5 l22 -24 -38 -13 c-21 -8 -43 -18 -48 -23 -16 -16 -23 -12 -30 16
-5 19 -11 24 -26 19 -14 -5 -20 -2 -20 9 0 9 9 16 20 16 11 0 20 5 20 10 0 20
21 9 32 -17z m248 16 c0 -5 -5 -7 -12 -3 -8 5 -9 0 -6 -14 4 -12 2 -22 -2 -22
-14 0 -21 17 -14 34 7 18 34 22 34 5z m1550 1 c0 -5 -4 -10 -10 -10 -5 0 -10
5 -10 10 0 6 5 10 10 10 6 0 10 -4 10 -10z m1265 -10 c3 -5 -1 -10 -10 -10 -9
0 -13 5 -10 10 3 6 8 10 10 10 2 0 7 -4 10 -10z m630 -18 c-3 -3 -11 0 -18 7
-9 10 -8 11 6 5 10 -3 15 -9 12 -12z m-2848 2 c-3 -3 -12 -4 -19 -1 -8 3 -5 6
6 6 11 1 17 -2 13 -5z m-707 -8 c0 -2 -7 -6 -15 -10 -8 -3 -15 -1 -15 4 0 6 7
10 15 10 8 0 15 -2 15 -4z m595 -16 c3 -5 1 -10 -4 -10 -6 0 -11 5 -11 10 0 6
2 10 4 10 3 0 8 -4 11 -10z m6467 -9 c13 -10 38 -22 56 -25 39 -9 41 -21 5
-30 -17 -5 -29 -3 -34 6 -7 11 -9 11 -9 0 0 -7 -4 -11 -9 -8 -5 3 -26 8 -47
11 -56 9 -64 12 -58 30 5 11 -1 15 -24 15 -30 0 -41 -17 -42 -61 0 -21 31 -34
41 -17 6 9 14 6 33 -11 14 -13 23 -27 21 -32 -3 -4 3 -10 12 -12 10 -3 3 -5
-15 -6 -32 -1 -111 32 -124 52 -3 6 -2 17 2 26 8 15 21 47 25 64 2 4 3 9 4 11
0 3 32 5 70 5 52 0 75 -4 93 -18z m-6905 -17 c-7 -7 -37 7 -37 17 0 6 9 5 21
-1 11 -7 19 -14 16 -16z m-103 -10 c3 -8 2 -12 -4 -9 -6 3 -10 10 -10 16 0 14
7 11 14 -7z m3610 -31 c24 -26 43 -49 41 -51 -2 -2 -26 19 -54 47 -28 28 -46
51 -41 51 4 0 29 -21 54 -47z m-3782 22 c0 -5 -5 -11 -11 -13 -6 -2 -11 4 -11
13 0 9 5 15 11 13 6 -2 11 -8 11 -13z m82 -12 c-9 -40 -24 -51 -21 -17 2 24
12 43 25 44 1 0 -1 -12 -4 -27z m1476 17 c0 -5 -2 -10 -4 -10 -3 0 -8 5 -11
10 -3 6 -1 10 4 10 6 0 11 -4 11 -10z m-1315 -10 c3 -5 1 -10 -4 -10 -6 0 -11
5 -11 10 0 6 2 10 4 10 3 0 8 -4 11 -10z m6712 -19 c0 -11 -5 -17 -9 -15 -11
7 -10 34 1 34 6 0 9 -9 8 -19z m-6917 -1 c0 -5 -7 -10 -16 -10 -8 0 -12 5 -9
10 3 6 10 10 16 10 5 0 9 -4 9 -10z m157 -30 c-1 -11 -5 -20 -9 -20 -4 0 -8 9
-8 20 0 11 4 20 9 20 6 0 9 -9 8 -20z m6060 4 c-3 -3 -12 -4 -19 -1 -8 3 -5 6
6 6 11 1 17 -2 13 -5z m586 -8 c9 0 17 -3 17 -7 0 -4 29 -8 63 -11 59 -3 70
-8 137 -58 46 -34 75 -50 78 -42 4 14 41 16 61 3 12 -8 12 -12 2 -25 -21 -25
55 -54 124 -46 52 6 53 5 44 -17 -5 -13 -6 -29 -4 -35 5 -12 -41 -57 -239
-240 -117 -107 -150 -139 -138 -133 6 3 12 1 12 -4 0 -6 -6 -11 -12 -11 -17
-1 -87 -59 -71 -60 6 0 14 4 18 10 3 5 32 14 65 21 33 6 60 15 60 19 0 11 39
20 45 10 8 -13 -4 -17 -112 -49 -121 -35 -189 -69 -245 -122 -24 -22 -56 -48
-73 -57 -16 -8 -41 -23 -55 -33 -41 -28 -127 -32 -196 -8 -70 25 -224 36 -301
22 -49 -9 -58 -8 -127 24 -86 39 -186 63 -266 63 -48 0 -151 -11 -336 -35 -38
-5 -43 -3 -69 31 -15 20 -32 57 -36 83 -12 65 -28 89 -74 116 -44 26 -164 66
-266 89 -36 8 -88 27 -114 41 -26 14 -63 25 -82 25 -41 0 -96 -27 -87 -41 4
-7 0 -9 -12 -5 -19 6 -123 -37 -135 -55 -3 -5 -37 14 -75 42 -79 59 -132 85
-193 95 -23 4 -45 13 -48 21 -5 12 -7 12 -14 1 -14 -20 -25 4 -38 83 -6 39
-16 78 -22 88 -9 14 -7 22 12 43 13 13 37 41 52 62 16 20 41 42 55 48 44 18
1321 11 1446 -8 55 -8 149 -14 210 -13 66 1 156 -6 223 -16 l112 -18 38 26
c32 21 54 26 138 32 55 4 150 20 210 36 79 20 123 26 155 22 25 -3 53 -6 63
-7z m-6673 -21 c19 -36 8 -40 -12 -4 -9 16 -14 29 -9 29 4 0 14 -11 21 -25z
m-180 5 c0 -5 -4 -10 -10 -10 -5 0 -10 5 -10 10 0 6 5 10 10 10 6 0 10 -4 10
-10z m40 0 c0 -5 -4 -10 -10 -10 -5 0 -10 5 -10 10 0 6 5 10 10 10 6 0 10 -4
10 -10z m1295 -10 c3 -5 1 -10 -4 -10 -6 0 -11 5 -11 10 0 6 2 10 4 10 3 0 8
-4 11 -10z m2558 -50 c10 0 16 -4 13 -9 -9 -14 -43 -2 -50 17 -3 10 -9 24 -12
32 -3 8 3 3 13 -12 10 -16 26 -28 36 -28z m-3846 18 c-3 -8 -6 -5 -6 6 -1 11
2 17 5 13 3 -3 4 -12 1 -19z m165 -10 c-7 -7 -12 -8 -12 -2 0 14 12 26 19 19
2 -3 -1 -11 -7 -17z m3779 -19 c19 -7 39 -16 44 -21 6 -5 -3 -4 -18 1 -16 6
-39 11 -52 11 -13 0 -27 5 -30 10 -8 13 14 13 56 -1z m-201 -3 c0 -2 -7 -6
-15 -10 -8 -3 -15 -1 -15 4 0 6 7 10 15 10 8 0 15 -2 15 -4z m-47 -13 c-7 -2
-19 -2 -25 0 -7 3 -2 5 12 5 14 0 19 -2 13 -5z m-3708 -23 c3 -5 1 -10 -4 -10
-6 0 -11 5 -11 10 0 6 2 10 4 10 3 0 8 -4 11 -10z m4080 -30 c11 -17 -5 -11
-28 11 l-22 21 22 -11 c12 -6 25 -16 28 -21z m-4275 -44 c-9 -59 -15 -74 -25
-64 -5 5 8 73 21 117 10 33 13 0 4 -53z m7630 14 c0 -5 -4 -10 -10 -10 -5 0
-10 5 -10 10 0 6 5 10 10 10 6 0 10 -4 10 -10z m-45 -30 c-10 -11 -23 -20 -28
-20 -6 0 -2 9 8 20 10 11 23 20 28 20 6 0 2 -9 -8 -20z m-7603 -85 c-2 -14 -8
-28 -13 -31 -10 -6 -11 2 -3 34 9 30 22 28 16 -3z m7442 -89 c-10 -8 -21 -12
-24 -9 -3 2 4 11 14 19 11 7 22 12 25 9 2 -3 -4 -12 -15 -19z m31 -46 c-3 -5
-19 -10 -36 -10 -16 0 -29 -4 -29 -10 0 -5 -4 -10 -10 -10 -23 0 -7 20 23 29
44 13 59 13 52 1z m-95 -25 c0 -8 -61 -37 -67 -32 -3 3 8 12 24 21 29 16 43
19 43 11z m100 -49 c0 -3 -4 -8 -10 -11 -5 -3 -10 -1 -10 4 0 6 5 11 10 11 6
0 10 -2 10 -4z m-7573 -12 c-3 -3 -12 -4 -19 -1 -8 3 -5 6 6 6 11 1 17 -2 13
-5z m4871 -54 c-7 -10 -14 -17 -17 -15 -4 4 18 35 25 35 2 0 -1 -9 -8 -20z
m2502 10 c-20 -13 -33 -13 -25 0 3 6 14 10 23 10 15 0 15 -2 2 -10z m-50 -20
c0 -5 -5 -10 -11 -10 -5 0 -7 5 -4 10 3 6 8 10 11 10 2 0 4 -4 4 -10z m155
-30 c-2 -4 -21 -7 -42 -8 -26 -1 -34 1 -24 8 17 10 72 10 66 0z m315 -120 c0
-5 -5 -10 -11 -10 -5 0 -7 5 -4 10 3 6 8 10 11 10 2 0 4 -4 4 -10z m-2087
-116 c73 -22 100 -34 94 -40 -3 -3 -14 -1 -24 4 -10 6 -34 12 -53 15 -48 7
-80 18 -80 28 0 12 3 12 63 -7z m447 -34 c0 -5 -4 -10 -10 -10 -5 0 -10 5 -10
10 0 6 5 10 10 10 6 0 10 -4 10 -10z m-295 -10 c3 -5 -1 -10 -9 -10 -9 0 -16
5 -16 10 0 6 4 10 9 10 6 0 13 -4 16 -10z m550 -20 c3 -5 1 -10 -4 -10 -6 0
-11 5 -11 10 0 6 2 10 4 10 3 0 8 -4 11 -10z m-488 -6 c-3 -3 -12 -4 -19 -1
-8 3 -5 6 6 6 11 1 17 -2 13 -5z m-4122 -14 c-3 -5 -10 -10 -16 -10 -5 0 -9 5
-9 10 0 6 7 10 16 10 8 0 12 -4 9 -10z m5840 -8 c-3 -3 -11 0 -18 7 -9 10 -8
11 6 5 10 -3 15 -9 12 -12z m-1668 2 c-3 -3 -12 -4 -19 -1 -8 3 -5 6 6 6 11 1
17 -2 13 -5z m518 -34 c3 -6 -1 -7 -9 -4 -18 7 -21 14 -7 14 6 0 13 -4 16 -10z
m-490 -20 c-3 -5 -11 -10 -16 -10 -6 0 -7 5 -4 10 3 6 11 10 16 10 6 0 7 -4 4
-10z m-4210 -20 c3 -5 -1 -10 -9 -10 -9 0 -16 5 -16 10 0 6 4 10 9 10 6 0 13
-4 16 -10z m5990 -19 c3 -5 1 -12 -5 -16 -5 -3 -10 1 -10 9 0 18 6 21 15 7z
m-6005 -61 c0 -5 -4 -10 -10 -10 -5 0 -10 5 -10 10 0 6 5 10 10 10 6 0 10 -4
10 -10z m-10 -80 c0 -5 -4 -10 -10 -10 -5 0 -10 5 -10 10 0 6 5 10 10 10 6 0
10 -4 10 -10z m0 -80 c0 -5 -4 -10 -10 -10 -5 0 -10 5 -10 10 0 6 5 10 10 10
6 0 10 -4 10 -10z m5 -70 c3 -5 1 -10 -4 -10 -6 0 -11 5 -11 10 0 6 2 10 4 10
3 0 8 -4 11 -10z"/>
<path d="M4545 6251 c-3 -5 4 -13 16 -16 28 -9 36 1 10 14 -12 7 -22 7 -26 2z"/>
<path d="M1475 4323 c15 -39 118 -143 140 -143 7 0 18 -7 25 -15 19 -23 63
-18 90 10 18 19 20 25 8 25 -9 0 -21 7 -28 15 -7 8 -23 15 -35 15 -33 0 -55
10 -55 25 0 7 -15 19 -32 26 -18 7 -48 28 -66 46 -18 18 -39 33 -47 33 -13 0
-13 -5 0 -37z"/>
<path d="M1760 4190 c0 -5 5 -10 11 -10 5 0 7 5 4 10 -3 6 -8 10 -11 10 -2 0
-4 -4 -4 -10z"/>
<path d="M4081 3804 c0 -11 3 -14 6 -6 3 7 2 16 -1 19 -3 4 -6 -2 -5 -13z"/>
<path d="M2455 2830 c3 -5 14 -10 23 -10 15 0 15 2 2 10 -20 13 -33 13 -25 0z"/>
<path d="M400 2251 c0 -5 7 -12 16 -15 14 -5 15 -4 4 9 -14 17 -20 19 -20 6z"/>
<path d="M4257 7344 c-16 -17 -4 -24 38 -24 25 0 45 5 45 10 0 6 -8 10 -17 10
-10 0 -27 3 -38 6 -11 3 -24 2 -28 -2z"/>
<path d="M4473 7338 c-47 -23 -10 -52 41 -32 12 5 13 9 3 25 -13 22 -14 22
-44 7z"/>
<path d="M3010 7314 c0 -11 5 -14 16 -10 9 3 22 6 30 6 8 0 14 5 14 10 0 6
-13 10 -30 10 -21 0 -30 -5 -30 -16z"/>
<path d="M3146 7322 c-3 -6 1 -15 9 -22 8 -7 12 -16 9 -21 -3 -5 0 -9 6 -9 15
0 9 52 -7 57 -6 2 -14 0 -17 -5z"/>
<path d="M4352 7318 c5 -15 37 -18 41 -3 1 6 -9 12 -22 13 -16 3 -22 -1 -19
-10z"/>
<path d="M5900 7320 c-8 -5 -18 -6 -22 -4 -4 3 -8 -8 -8 -25 0 -27 2 -29 28
-22 21 6 26 13 24 32 -5 30 -5 30 -22 19z"/>
<path d="M6390 7320 c0 -5 7 -10 15 -10 8 0 15 5 15 10 0 6 -7 10 -15 10 -8 0
-15 -4 -15 -10z"/>
<path d="M3237 7314 c-4 -4 -5 -10 -2 -14 6 -9 65 0 65 11 0 10 -53 12 -63 3z"/>
<path d="M3360 7307 c0 -8 7 -20 15 -27 12 -10 15 -10 15 3 0 8 -7 20 -15 27
-12 10 -15 10 -15 -3z"/>
<path d="M4553 7313 c-20 -7 -15 -23 7 -23 11 0 20 4 20 9 0 13 -12 19 -27 14z"/>
<path d="M3445 7300 c-13 -20 9 -27 45 -14 26 9 29 13 13 13 -12 1 -28 4 -36
7 -8 3 -18 0 -22 -6z"/>
<path d="M4626 7295 c-6 -15 -2 -17 31 -13 21 3 63 2 93 -2 30 -4 62 -4 70 1
8 5 13 9 10 9 -3 1 -14 4 -25 6 -11 3 -54 8 -96 11 -66 5 -77 3 -83 -12z"/>
<path d="M2945 7290 c-3 -5 -1 -10 4 -10 6 0 11 5 11 10 0 6 -2 10 -4 10 -3 0
-8 -4 -11 -10z"/>
<path d="M3654 7293 c-16 -5 -7 -71 17 -120 31 -60 49 -67 49 -18 0 28 -3 36
-14 32 -8 -3 -20 1 -27 10 -11 13 -10 18 9 33 12 10 26 20 31 22 5 2 11 9 13
17 2 10 -9 17 -33 21 -19 3 -40 5 -45 3z"/>
<path d="M4890 7290 c-7 -5 -3 -10 12 -13 32 -9 48 -8 48 2 0 12 -46 20 -60
11z"/>
<path d="M3574 7275 c-8 -21 6 -41 17 -24 12 19 11 39 -1 39 -6 0 -13 -7 -16
-15z"/>
<path d="M3790 7277 c0 -6 14 -18 30 -26 25 -10 29 -17 24 -34 -5 -18 -4 -20
6 -10 7 7 14 24 16 39 2 23 0 26 -21 22 -14 -3 -26 0 -29 8 -7 18 -26 18 -26
1z"/>
<path d="M4970 7270 c0 -5 9 -10 21 -10 11 0 17 5 14 10 -3 6 -13 10 -21 10
-8 0 -14 -4 -14 -10z"/>
<path d="M5065 7270 c3 -5 17 -10 31 -10 13 0 24 5 24 10 0 6 -14 10 -31 10
-17 0 -28 -4 -24 -10z"/>
<path d="M6048 7273 c-9 -2 -19 -11 -22 -19 -7 -19 1 -18 31 6 25 20 24 22 -9
13z"/>
<path d="M4050 7255 c0 -8 7 -15 15 -15 8 0 15 4 15 9 0 5 -7 11 -15 15 -9 3
-15 0 -15 -9z"/>
<path d="M5232 7258 c5 -15 57 -18 61 -3 1 6 -13 11 -32 13 -24 3 -32 0 -29
-10z"/>
<path d="M3381 7233 c-1 -17 4 -35 9 -38 12 -7 12 22 0 50 -7 17 -9 15 -9 -12z"/>
<path d="M4117 7253 c-15 -14 -5 -21 38 -25 38 -3 45 0 45 14 0 14 -8 18 -38
18 -21 0 -42 -3 -45 -7z"/>
<path d="M5323 7253 c-8 -3 -9 -12 -1 -34 13 -37 28 -37 28 0 0 32 -8 41 -27
34z"/>
<path d="M5428 7252 c-16 -2 -28 -9 -28 -16 0 -17 102 -16 107 0 4 13 -37 21
-79 16z"/>
<path d="M3150 7243 c1 -5 7 -19 15 -33 12 -22 14 -23 20 -7 4 9 2 24 -5 32
-13 16 -30 20 -30 8z"/>
<path d="M4252 7225 c0 -16 2 -22 5 -12 2 9 2 23 0 30 -3 6 -5 -1 -5 -18z"/>
<path d="M4317 7243 c-14 -13 -6 -20 24 -21 17 0 37 -6 45 -13 11 -9 14 -8 14
9 0 11 -7 23 -16 26 -21 8 -59 8 -67 -1z"/>
<path d="M5550 7220 c-12 -23 2 -27 19 -6 8 9 8 16 2 20 -6 4 -15 -3 -21 -14z"/>
<path d="M5636 7231 c-24 -9 -11 -18 29 -21 53 -4 61 0 31 15 -31 17 -33 17
-60 6z"/>
<path d="M3245 7220 c-3 -5 1 -20 9 -32 16 -22 16 -22 16 10 0 31 -12 42 -25
22z"/>
<path d="M4487 7215 c-8 -20 7 -27 36 -16 13 5 32 9 42 8 10 -1 20 4 22 11 7
19 -93 17 -100 -3z"/>
<path d="M4643 7215 c-13 -14 -7 -25 14 -25 14 0 18 26 6 33 -5 3 -13 -1 -20
-8z"/>
<path d="M3446 7204 c-4 -10 0 -24 9 -33 13 -14 15 -13 15 4 0 11 -4 26 -9 33
-6 11 -10 10 -15 -4z"/>
<path d="M5800 7210 c0 -5 6 -10 14 -10 8 0 18 5 21 10 3 6 -3 10 -14 10 -12
0 -21 -4 -21 -10z"/>
<path d="M4730 7199 c0 -6 8 -8 19 -4 13 4 27 -1 41 -15 23 -23 40 -19 40 11
0 16 -7 19 -50 19 -29 0 -50 -5 -50 -11z"/>
<path d="M5950 7200 c0 -5 9 -10 20 -10 11 0 20 5 20 10 0 6 -9 10 -20 10 -11
0 -20 -4 -20 -10z"/>
<path d="M3815 7183 c4 -10 13 -40 20 -68 13 -56 25 -42 25 31 0 34 -3 42 -15
38 -8 -4 -15 -1 -15 5 0 6 -5 11 -11 11 -7 0 -8 -7 -4 -17z"/>
<path d="M4920 7189 c0 -5 5 -7 10 -4 6 3 10 8 10 11 0 2 -4 4 -10 4 -5 0 -10
-5 -10 -11z"/>
<path d="M3910 7161 c0 -12 5 -21 10 -21 6 0 10 6 10 14 0 8 -4 18 -10 21 -5
3 -10 -3 -10 -14z"/>
<path d="M6030 7164 c0 -8 5 -12 10 -9 6 3 10 10 10 16 0 5 -4 9 -10 9 -5 0
-10 -7 -10 -16z"/>
<path d="M6360 7165 c-10 -12 -9 -15 6 -16 46 -3 66 7 44 21 -21 14 -36 12
-50 -5z"/>
<path d="M3981 7155 c0 -12 -5 -25 -11 -31 -6 -6 -6 -21 -1 -39 l8 -30 8 36
c3 20 5 47 2 60 -4 20 -4 21 -6 4z"/>
<path d="M6507 7164 c-11 -11 3 -24 25 -24 17 0 18 2 8 15 -13 16 -23 19 -33
9z"/>
<path d="M4173 7148 c-13 -16 -11 -77 2 -80 12 -4 26 74 16 85 -4 4 -12 2 -18
-5z"/>
<path d="M687 7143 c-4 -3 -7 -11 -7 -17 0 -6 5 -5 12 2 6 6 9 14 7 17 -3 3
-9 2 -12 -2z"/>
<path d="M4355 7121 c-13 -26 -13 -34 -1 -63 16 -37 21 -30 31 45 7 54 -6 63
-30 18z"/>
<path d="M5807 7143 c-14 -13 -6 -23 18 -23 16 0 25 6 25 15 0 15 -31 21 -43
8z"/>
<path d="M4790 7131 c-31 -4 -40 -17 -40 -58 0 -21 8 -40 23 -53 l22 -21 13
32 c7 17 12 48 10 68 -3 32 -6 36 -28 32z"/>
<path d="M5954 7128 c-10 -15 17 -39 30 -28 7 5 24 8 39 7 14 -1 27 3 29 8 4
12 -91 24 -98 13z"/>
<path d="M4920 7101 c0 -5 5 -13 10 -16 6 -3 10 -2 10 4 0 5 -4 13 -10 16 -5
3 -10 2 -10 -4z"/>
<path d="M6190 7100 c0 -5 11 -10 25 -10 14 0 25 5 25 10 0 6 -11 10 -25 10
-14 0 -25 -4 -25 -10z"/>
<path d="M4511 7093 c0 -5 4 -17 9 -28 8 -18 9 -17 9 8 1 15 -3 27 -9 27 -5 0
-10 -3 -9 -7z"/>
<path d="M5880 7090 c0 -5 5 -10 11 -10 5 0 7 5 4 10 -3 6 -8 10 -11 10 -2 0
-4 -4 -4 -10z"/>
<path d="M5647 7064 c-3 -4 -2 -15 4 -26 8 -15 13 -17 25 -7 11 9 12 15 3 25
-12 15 -22 17 -32 8z"/>
<path d="M5867 7040 c3 -11 9 -20 14 -20 11 0 11 3 3 24 -9 23 -23 20 -17 -4z"/>
<path d="M5516 7017 c-25 -20 -26 -24 -12 -36 9 -7 16 -22 16 -32 0 -11 7 -19
15 -19 10 0 15 10 15 28 0 15 4 33 9 41 9 14 4 41 -8 41 -3 0 -19 -10 -35 -23z"/>
<path d="M5976 7025 c4 -8 8 -15 10 -15 2 0 4 7 4 15 0 8 -4 15 -10 15 -5 0
-7 -7 -4 -15z"/>
<path d="M6015 7030 c-7 -11 2 -30 14 -30 5 0 11 9 14 20 5 21 -16 29 -28 10z"/>
<path d="M3424 7021 c7 -11 46 -35 46 -28 0 3 -12 12 -26 22 -15 9 -23 12 -20
6z"/>
<path d="M5682 6963 c14 -17 28 -16 28 1 0 8 -9 14 -19 13 -15 -1 -17 -4 -9
-14z"/>
<path d="M136 6961 c-7 -11 11 -24 37 -26 26 -2 17 29 -10 33 -11 2 -24 -1
-27 -7z"/>
<path d="M472 6949 c-32 -12 -27 -15 16 -11 54 5 60 8 31 14 -14 2 -36 1 -47
-3z"/>
<path d="M7737 6953 c-5 -8 -2 -347 7 -777 l5 -258 -84 -87 -85 -86 0 518 c0
405 -3 518 -12 522 -7 2 -146 11 -308 19 -162 9 -323 19 -356 22 l-62 6 5 -46
c5 -41 3 -46 -14 -46 -11 0 -32 -11 -47 -25 -29 -27 -56 -24 -56 6 0 11 -7 19
-16 19 -8 0 -13 -4 -9 -9 10 -17 -11 -21 -31 -6 -26 20 -29 19 -30 -11 -2 -31
-3 -32 -42 -40 -28 -6 -33 -3 -42 22 l-11 28 -19 -32 c-11 -18 -20 -36 -20
-41 0 -4 -15 -13 -32 -19 -19 -5 -25 -10 -15 -11 21 -1 13 -21 -9 -21 -8 0
-14 9 -14 19 0 32 -11 51 -31 51 -12 0 -16 -5 -13 -15 4 -8 10 -12 15 -9 5 3
9 -2 9 -10 0 -19 -31 -21 -49 -3 -10 10 -12 9 -9 -2 2 -8 -7 -17 -20 -20 -13
-3 -23 -9 -23 -13 2 -20 0 -20 -14 -2 -13 18 -14 18 -15 1 0 -10 -4 -16 -9
-13 -5 4 -12 0 -14 -6 -3 -8 -6 -6 -6 5 -1 9 -6 17 -12 17 -5 0 -7 5 -4 10 10
16 -11 12 -25 -5 -11 -13 -9 -19 9 -34 11 -10 21 -21 21 -25 0 -11 -38 -6 -44
7 -4 8 -5 7 -5 -3 3 -43 -16 -55 -41 -25 -7 9 -17 12 -21 8 -4 -4 -4 -260 1
-567 5 -308 7 -562 5 -564 -3 -3 3 -11 12 -17 14 -10 23 -9 51 7 36 20 72 16
72 -8 0 -21 14 -17 44 11 37 34 49 32 93 -15 36 -40 39 -41 88 -36 27 3 113
10 190 16 77 5 274 20 438 32 256 18 300 19 308 7 6 -10 9 -10 9 -1 0 6 7 12
16 12 24 0 12 -34 -13 -38 -29 -4 -35 -37 -12 -58 22 -20 25 -60 5 -71 -8 -4
-20 -31 -27 -58 -17 -65 -26 -76 -55 -69 -15 4 -36 -2 -59 -16 -53 -33 -45
-43 30 -35 71 8 87 -4 33 -25 -39 -15 -99 -41 -112 -48 -5 -3 -6 0 -2 6 3 6 2
13 -4 17 -5 3 -15 -3 -22 -15 -15 -23 -28 -26 -28 -6 0 17 -52 28 -62 13 -3
-5 -4 -16 -1 -23 2 -7 -3 -26 -11 -43 -9 -16 -16 -43 -16 -58 0 -17 -8 -33
-20 -41 -17 -10 -20 -10 -20 4 0 12 -6 14 -30 9 -27 -6 -30 -4 -30 19 0 16 -6
26 -15 27 -8 1 -21 2 -27 3 -7 0 -14 13 -16 28 -2 15 -8 25 -15 23 -43 -13
-78 -14 -74 -2 2 7 16 11 35 9 23 -3 32 1 32 11 0 12 30 34 34 25 1 -2 6 -16
11 -32 12 -36 29 -40 33 -7 2 13 12 26 23 28 11 3 19 12 17 20 -2 8 -5 13 -8
12 -3 -1 -14 3 -26 9 -14 8 -24 8 -31 1 -12 -12 -163 -16 -180 -6 -7 4 -11 49
-12 109 -1 69 -5 105 -14 110 -19 12 -96 9 -156 -7 -31 -8 -171 -26 -311 -40
-140 -14 -309 -32 -375 -41 -66 -8 -178 -22 -250 -30 -71 -8 -145 -19 -164
-24 -18 -5 -46 -6 -62 -3 -32 6 -155 -51 -200 -94 -34 -32 -81 -152 -85 -217
-3 -66 -22 -234 -29 -263 -3 -14 -13 -23 -24 -23 -24 0 -29 -6 -24 -34 4 -18
10 -22 26 -18 18 5 20 2 14 -34 -4 -21 -7 -44 -7 -50 0 -6 -24 -14 -52 -17
-29 -4 -84 -11 -123 -17 -38 -5 -91 -9 -117 -10 -27 0 -48 -4 -48 -10 0 -5 6
-10 14 -10 16 0 35 -42 40 -90 2 -19 6 -42 9 -50 3 -8 7 -26 9 -40 3 -28 -8
-27 168 -15 85 6 109 4 124 -8 18 -13 19 -16 4 -38 -12 -19 -33 -28 -99 -41
-46 -10 -106 -20 -134 -23 -78 -10 -91 -15 -92 -36 -1 -11 1 -18 5 -15 4 2 7
-12 7 -32 0 -21 5 -49 12 -64 7 -15 13 -47 13 -73 0 -25 4 -45 9 -45 5 0 8 42
7 95 -2 69 1 96 10 99 7 3 38 4 68 2 52 -3 56 -2 64 23 l9 26 17 -32 c9 -18
22 -33 30 -33 7 0 21 -9 31 -20 22 -25 44 -26 60 -3 12 16 14 13 20 -22 4 -22
10 -58 15 -80 l9 -40 -1 50 c0 28 1 55 1 60 1 6 60 10 156 11 85 0 158 3 161
7 4 4 -5 29 -20 56 -28 53 -48 132 -36 151 5 8 9 5 12 -8 3 -11 17 -21 36 -25
23 -5 32 -13 37 -37 8 -36 38 -47 95 -32 22 5 42 7 45 3 7 -13 140 -4 163 10
31 19 36 6 19 -46 -12 -35 -13 -47 -4 -50 7 -2 59 -6 117 -8 116 -5 140 -11
140 -36 0 -23 -104 -57 -235 -78 -108 -17 -140 -33 -115 -57 13 -12 26 -11 93
10 43 12 116 26 162 30 73 6 85 5 85 -9 0 -19 -76 -37 -158 -37 -62 0 -96 -12
-67 -24 45 -17 243 10 274 38 22 20 47 20 136 0 39 -8 131 -26 205 -39 152
-26 195 -36 295 -70 68 -24 200 -47 210 -37 3 3 5 14 5 24 0 11 15 28 36 40
32 19 35 24 30 54 -6 27 -2 37 21 58 15 14 34 26 42 26 11 0 11 3 1 15 -11 13
-8 21 20 50 19 19 42 35 51 35 9 0 33 -16 52 -37 29 -29 39 -34 50 -25 8 7 34
15 59 18 l46 6 37 -71 c38 -71 57 -84 63 -43 2 12 10 22 17 22 9 0 12 6 8 16
-6 16 42 74 62 74 6 0 19 24 30 53 26 73 42 95 88 119 37 18 51 20 149 13
l108 -7 0 1171 0 1170 -64 -6 -64 -6 -7 54 c-4 30 -5 72 -3 94 l3 40 68 3 67
3 -2 197 -3 197 -100 12 c-120 14 -152 15 -158 6z m-395 -545 c-9 -9 -12 -7
-12 12 0 19 3 21 12 12 9 -9 9 -15 0 -24z m648 -134 c0 -16 -16 -19 -25 -4 -8
13 4 32 16 25 5 -4 9 -13 9 -21z m-1529 -94 c-2 -36 -4 -66 -5 -66 0 -1 -17
-4 -38 -8 -51 -9 -68 11 -68 78 0 29 2 55 5 58 3 3 29 5 58 4 l52 -1 -4 -65z
m889 -117 c0 -17 -4 -35 -10 -38 -6 -4 -10 14 -10 47 0 38 3 49 10 38 5 -8 10
-29 10 -47z m590 36 c0 -5 -7 -9 -15 -9 -8 0 -15 7 -15 15 0 9 6 12 15 9 8 -4
15 -10 15 -15z m-1097 -1248 c-3 -12 26 -16 100 -12 29 2 47 -1 47 -8 0 -13
-5 -15 -68 -31 -53 -14 -51 -35 4 -36 61 -1 56 -25 -8 -39 -19 -4 -34 -17 -48
-45 -20 -39 -67 -90 -83 -90 -13 0 -5 127 12 188 12 43 12 57 3 60 -7 2 -12
12 -12 22 0 15 5 17 28 11 15 -5 26 -13 25 -20z m667 -380 c0 -5 -7 -12 -16
-15 -24 -9 -28 -7 -14 9 14 17 30 20 30 6z m-1631 -145 c7 -8 8 -16 4 -19 -12
-7 -115 -27 -138 -26 -65 1 -232 -15 -242 -23 -10 -8 -13 -5 -13 10 0 29 25
40 111 47 41 3 84 8 97 11 26 5 30 -12 5 -19 -11 -3 -6 -5 11 -6 20 -1 27 3
23 13 -9 22 2 26 68 26 42 0 66 -5 74 -14z m1361 -226 c0 -5 -9 -6 -20 -3 -11
3 -20 9 -20 13 0 5 9 6 20 3 11 -3 20 -9 20 -13z m210 -91 c0 -6 -4 -7 -10 -4
-5 3 -10 11 -10 16 0 6 5 7 10 4 6 -3 10 -11 10 -16z m-1300 -213 c0 -8 -4
-18 -10 -21 -5 -3 -10 3 -10 14 0 12 5 21 10 21 6 0 10 -6 10 -14z"/>
<path d="M6432 6170 c0 -14 2 -19 5 -12 2 6 2 18 0 25 -3 6 -5 1 -5 -13z"/>
<path d="M308 6912 c2 -18 8 -32 13 -32 13 0 11 24 -4 45 -13 16 -14 15 -9
-13z"/>
<path d="M858 6878 c9 -9 15 -9 24 0 9 9 7 12 -12 12 -19 0 -21 -3 -12 -12z"/>
<path d="M330 6840 c0 -5 5 -10 10 -10 6 0 10 5 10 10 0 6 -4 10 -10 10 -5 0
-10 -4 -10 -10z"/>
<path d="M4645 6750 c-3 -5 1 -10 10 -10 9 0 13 5 10 10 -3 6 -8 10 -10 10 -2
0 -7 -4 -10 -10z"/>
<path d="M5500 6555 c0 -17 -38 -38 -97 -54 -24 -7 -54 -22 -67 -34 l-24 -22
8 -160 c14 -247 40 -851 41 -939 l1 -79 77 7 c42 3 133 9 203 13 70 3 131 9
136 12 6 4 6 51 1 121 -13 189 -29 566 -29 696 0 66 -3 176 -7 243 -6 112 -13
138 -26 86 -4 -15 -5 -13 -6 8 0 15 -6 27 -11 27 -7 0 -8 13 -4 35 5 28 3 35
-10 35 -14 0 -21 -14 -28 -65 -2 -12 -12 -21 -26 -23 -18 -3 -23 3 -28 26 -5
24 -10 29 -26 24 -11 -3 -27 -17 -37 -31 -31 -49 -44 -39 -38 29 3 33 3 60 1
60 -2 0 -4 -7 -4 -15z"/>
<path d="M38 6194 c17 -8 15 -33 -3 -40 -19 -8 -20 -24 -1 -24 17 0 35 -98 28
-155 -4 -35 -3 -38 11 -27 14 12 19 8 39 -22 13 -20 29 -34 36 -31 6 2 12 -1
12 -7 0 -6 9 -3 20 7 28 25 26 84 -5 144 -14 27 -35 57 -45 66 -11 10 -20 23
-20 29 -1 20 -35 54 -60 60 -14 3 -19 3 -12 0z m102 -164 c0 -5 -5 -10 -11
-10 -5 0 -7 5 -4 10 3 6 8 10 11 10 2 0 4 -4 4 -10z"/>
<path d="M3790 5800 c0 -5 5 -10 10 -10 6 0 10 5 10 10 0 6 -4 10 -10 10 -5 0
-10 -4 -10 -10z"/>
<path d="M175 5410 c-94 -4 -171 -8 -172 -9 -2 0 -3 -15 -3 -32 l0 -31 197 7
c109 4 208 7 221 6 19 -1 22 4 22 34 l0 35 -47 -2 c-27 -1 -124 -5 -218 -8z"/>
<path d="M4150 5353 c0 -23 -4 -45 -10 -48 -5 -3 -10 -19 -10 -36 0 -28 1 -29
49 -29 40 0 50 3 54 20 4 15 -4 27 -29 46 -19 15 -34 34 -34 43 0 9 -5 23 -10
31 -7 11 -10 4 -10 -27z"/>
<path d="M256 5001 c-3 -5 1 -12 10 -15 20 -8 29 -1 19 13 -8 13 -22 14 -29 2z"/>
<path d="M4724 4833 c-12 -2 -25 -14 -28 -26 -10 -39 -6 -114 7 -125 7 -6 37
-12 67 -14 52 -3 55 -5 58 -30 2 -16 8 -28 13 -28 12 0 12 47 0 54 -5 3 -12
32 -16 63 -3 32 -12 70 -18 86 -12 27 -27 31 -83 20z"/>
<path d="M4876 4831 c-7 -11 22 -23 35 -15 5 3 7 10 4 15 -8 12 -32 12 -39 0z"/>
<path d="M4577 4783 c-4 -3 -7 -26 -7 -49 0 -36 -5 -46 -29 -63 -34 -25 -56
-26 -93 -7 -23 12 -28 13 -28 1 0 -7 7 -21 16 -29 10 -10 11 -16 4 -16 -8 0
-10 -9 -5 -27 17 -65 16 -74 -2 -71 -33 6 -19 -27 17 -38 30 -10 37 -18 48
-60 8 -27 14 -55 14 -61 1 -7 13 -13 27 -13 23 0 23 1 7 13 -10 7 -22 35 -27
61 -8 42 -6 52 13 78 16 23 18 32 8 38 -20 12 28 39 82 46 39 5 48 10 48 26 0
11 -8 22 -19 25 -17 4 -17 6 6 31 13 14 21 32 18 40 -3 7 -5 21 -5 30 0 13 -3
12 -15 -4 -14 -18 -14 -18 -15 7 0 38 -40 65 -63 42z"/>
<path d="M4392 4680 c0 -14 2 -19 5 -12 2 6 2 18 0 25 -3 6 -5 1 -5 -13z"/>
<path d="M4763 4653 c-17 -6 -16 -30 0 -36 16 -6 31 3 34 20 3 13 -16 22 -34
16z"/>
<path d="M4880 4620 c0 -5 11 -10 25 -10 14 0 25 5 25 10 0 6 -11 10 -25 10
-14 0 -25 -4 -25 -10z"/>
<path d="M4802 4567 c-9 -10 -8 -18 2 -32 18 -25 48 -13 44 17 -4 27 -30 35
-46 15z"/>
<path d="M4937 4523 c-26 -4 -60 -43 -37 -43 5 0 10 5 10 10 0 6 10 10 23 10
13 0 32 7 43 15 20 15 16 16 -39 8z"/>
<path d="M140 4492 c0 -5 7 -17 15 -28 15 -19 20 -8 9 20 -6 17 -24 22 -24 8z"/>
<path d="M4788 4483 c6 -2 12 -13 12 -23 0 -10 7 -21 16 -24 12 -5 15 -2 10
10 -3 8 -6 22 -6 30 0 8 -9 14 -22 13 -13 0 -17 -3 -10 -6z"/>
<path d="M4568 4424 c2 -19 7 -34 11 -34 9 0 1 59 -8 64 -4 3 -5 -11 -3 -30z"/>
<path d="M4715 4450 c-3 -5 -1 -10 4 -10 6 0 11 5 11 10 0 6 -2 10 -4 10 -3 0
-8 -4 -11 -10z"/>
<path d="M4755 4440 c-8 -13 5 -13 25 0 13 8 13 10 -2 10 -9 0 -20 -4 -23 -10z"/>
<path d="M4953 4403 c9 -2 23 -2 30 0 6 3 -1 5 -18 5 -16 0 -22 -2 -12 -5z"/>
<path d="M4800 4384 c0 -8 5 -12 10 -9 6 3 10 10 10 16 0 5 -4 9 -10 9 -5 0
-10 -7 -10 -16z"/>
<path d="M320 4381 c0 -5 7 -15 17 -22 15 -13 15 -12 4 9 -12 23 -21 28 -21
13z"/>
<path d="M350 4330 c0 -5 4 -10 8 -10 5 0 14 -10 20 -22 10 -22 11 -22 11 -3
1 11 -8 26 -19 33 -12 7 -20 8 -20 2z"/>
<path d="M3717 4277 c-3 -8 -1 -20 4 -28 6 -10 9 -7 9 14 0 29 -5 35 -13 14z"/>
<path d="M4510 4285 c0 -2 9 -9 20 -15 16 -9 20 -8 20 5 0 8 -9 15 -20 15 -11
0 -20 -2 -20 -5z"/>
<path d="M401 4254 c0 -11 3 -14 6 -6 3 7 2 16 -1 19 -3 4 -6 -2 -5 -13z"/>
<path d="M4784 4224 c5 -13 2 -15 -14 -11 -11 3 -20 1 -20 -4 0 -13 32 -10 53
5 23 18 22 26 -4 26 -15 0 -19 -4 -15 -16z"/>
<path d="M380 4220 c0 -5 5 -10 10 -10 6 0 10 5 10 10 0 6 -4 10 -10 10 -5 0
-10 -4 -10 -10z"/>
<path d="M348 4183 c7 -3 16 -2 19 1 4 3 -2 6 -13 5 -11 0 -14 -3 -6 -6z"/>
<path d="M544 4129 c-4 -8 -3 -9 5 -5 7 5 20 -1 32 -15 21 -25 39 -18 23 9
-13 21 -49 28 -60 11z"/>
<path d="M508 4103 c7 -3 16 -2 19 1 4 3 -2 6 -13 5 -11 0 -14 -3 -6 -6z"/>
<path d="M2770 4101 c0 -5 5 -13 10 -16 6 -3 10 -2 10 4 0 5 -4 13 -10 16 -5
3 -10 2 -10 -4z"/>
<path d="M3545 4090 c-8 -13 4 -32 16 -25 12 8 12 35 0 35 -6 0 -13 -4 -16
-10z"/>
<path d="M3887 4094 c-8 -8 3 -34 14 -34 5 0 9 9 9 20 0 19 -11 26 -23 14z"/>
<path d="M4947 4070 c-63 -8 -92 -25 -69 -39 15 -9 204 28 219 43 8 8 -76 5
-150 -4z"/>
<path d="M3160 4030 c0 -5 5 -10 10 -10 6 0 10 5 10 10 0 6 -4 10 -10 10 -5 0
-10 -4 -10 -10z"/>
<path d="M605 4021 c-3 -5 -1 -12 5 -16 5 -3 10 1 10 9 0 18 -6 21 -15 7z"/>
<path d="M110 4000 c0 -5 9 -10 20 -10 11 0 20 5 20 10 0 6 -9 10 -20 10 -11
0 -20 -4 -20 -10z"/>
<path d="M655 3982 c3 -41 4 -44 15 -37 6 4 19 1 28 -6 9 -8 7 -2 -5 12 -13
14 -23 30 -23 37 0 6 -4 13 -9 16 -4 3 -7 -7 -6 -22z"/>
<path d="M0 3986 c0 -14 61 -86 82 -97 37 -20 28 -3 -27 51 -30 30 -55 51 -55
46z"/>
<path d="M612 3950 c-10 -16 -10 -20 2 -20 7 0 16 9 19 20 3 11 2 20 -2 20 -3
0 -12 -9 -19 -20z"/>
<path d="M140 3926 c0 -15 48 -31 59 -21 7 8 -28 35 -46 35 -7 0 -13 -6 -13
-14z"/>
<path d="M4680 3936 c0 -2 7 -9 15 -16 13 -11 14 -10 9 4 -5 14 -24 23 -24 12z"/>
<path d="M277 3908 c2 -5 10 -8 18 -8 8 0 16 3 18 8 3 4 -5 7 -18 7 -13 0 -21
-3 -18 -7z"/>
<path d="M3681 3894 c0 -11 3 -14 6 -6 3 7 2 16 -1 19 -3 4 -6 -2 -5 -13z"/>
<path d="M3407 3893 c-4 -3 -7 -11 -7 -17 0 -6 5 -5 12 2 6 6 9 14 7 17 -3 3
-9 2 -12 -2z"/>
<path d="M4642 3795 c0 -16 2 -22 5 -12 2 9 2 23 0 30 -3 6 -5 -1 -5 -18z"/>
<path d="M395 3790 c-3 -5 -2 -10 4 -10 5 0 13 5 16 10 3 6 2 10 -4 10 -5 0
-13 -4 -16 -10z"/>
<path d="M5687 3743 c-4 -3 -19 -7 -34 -8 -16 -1 -70 -5 -122 -10 l-93 -8 43
-15 c36 -12 55 -12 104 -3 88 16 135 31 135 41 0 11 -23 13 -33 3z"/>
<path d="M5363 3723 c-13 -2 -23 -11 -23 -19 0 -19 57 -19 76 1 9 8 11 15 6
15 -6 0 -16 2 -24 4 -7 2 -23 1 -35 -1z"/>
<path d="M5520 3660 c0 -4 9 -15 20 -25 11 -10 20 -24 20 -32 0 -10 9 -7 30 9
17 12 30 25 30 28 0 3 -22 11 -50 16 -27 6 -50 8 -50 4z"/>
<path d="M4860 3646 c0 -2 7 -7 16 -10 8 -3 12 -2 9 4 -6 10 -25 14 -25 6z"/>
<path d="M4995 3600 c-3 -5 -1 -10 4 -10 6 0 11 5 11 10 0 6 -2 10 -4 10 -3 0
-8 -4 -11 -10z"/>
<path d="M4850 3581 c0 -6 4 -13 10 -16 6 -3 7 1 4 9 -7 18 -14 21 -14 7z"/>
<path d="M7342 3560 c-7 -11 -8 -20 -3 -20 9 0 24 30 18 36 -1 2 -8 -6 -15
-16z"/>
<path d="M4905 3560 c-3 -5 -1 -10 4 -10 6 0 11 5 11 10 0 6 -2 10 -4 10 -3 0
-8 -4 -11 -10z"/>
<path d="M4526 3533 c4 -15 8 -29 9 -30 1 -2 27 2 58 8 84 17 75 37 -19 46
l-55 4 7 -28z"/>
<path d="M4960 3541 c0 -10 19 -25 25 -20 1 2 -3 10 -11 17 -8 7 -14 8 -14 3z"/>
<path d="M7354 3525 c-19 -30 -14 -42 13 -26 10 6 14 11 9 11 -5 0 -3 6 3 14
8 9 8 16 2 20 -6 4 -18 -5 -27 -19z"/>
<path d="M228 3483 c7 -3 16 -2 19 1 4 3 -2 6 -13 5 -11 0 -14 -3 -6 -6z"/>
<path d="M5 3460 c3 -5 25 -10 49 -10 66 0 150 -19 211 -47 31 -14 59 -23 62
-20 13 13 -137 64 -225 77 -86 12 -105 12 -97 0z"/>
<path d="M295 3462 c6 -5 26 -15 45 -23 77 -30 234 -158 216 -176 -7 -8 -15
-4 -110 60 -32 21 -60 37 -62 34 -6 -6 67 -67 79 -67 5 0 7 -7 3 -15 -4 -10 1
-15 14 -15 11 0 20 -4 20 -8 0 -13 -52 -13 -67 0 -20 17 -53 20 -68 8 -14 -11
-95 8 -95 22 0 5 -19 8 -42 8 -41 1 -42 1 -19 14 l23 13 -31 6 c-17 4 -33 6
-35 4 -2 -1 -13 6 -24 16 -25 23 -102 14 -100 -12 3 -38 -3 -51 -22 -51 -15 0
-20 -7 -20 -25 0 -14 6 -25 13 -25 7 0 22 -7 33 -15 18 -15 17 -16 -13 -10
l-33 7 1 -219 c0 -120 3 -212 6 -205 6 14 54 16 103 2 19 -5 73 -16 118 -24
46 -8 94 -21 107 -30 12 -8 45 -18 73 -22 l50 -6 26 50 c22 43 96 142 168 224
62 71 71 89 48 103 -5 3 -10 17 -10 30 0 13 -4 27 -10 30 -5 3 -10 17 -10 31
0 14 -4 22 -10 19 -5 -3 -10 -1 -10 6 0 7 -3 10 -6 6 -4 -3 -16 8 -28 26 -46
68 -112 126 -207 185 -38 23 -131 59 -114 44z m-199 -177 c-10 -8 -23 -12 -28
-9 -14 9 2 24 25 24 21 -1 21 -1 3 -15z m5 -104 c-12 -8 -51 -4 -51 5 0 2 15
4 33 4 22 0 28 -3 18 -9z m434 -29 c-3 -3 -11 0 -18 7 -9 10 -8 11 6 5 10 -3
15 -9 12 -12z m-378 -178 c-3 -3 -12 -4 -19 -1 -8 3 -5 6 6 6 11 1 17 -2 13
-5z"/>
<path d="M5000 3460 c0 -5 5 -10 10 -10 6 0 10 5 10 10 0 6 -4 10 -10 10 -5 0
-10 -4 -10 -10z"/>
<path d="M500 3300 c0 -5 5 -10 11 -10 5 0 7 5 4 10 -3 6 -8 10 -11 10 -2 0
-4 -4 -4 -10z"/>
<path d="M647 3289 c4 -13 8 -18 11 -10 2 7 -1 18 -6 23 -8 8 -9 4 -5 -13z"/>
<path d="M5000 3270 c0 -15 -7 -20 -25 -20 -17 0 -25 -5 -25 -18 0 -10 -5 -23
-10 -28 -7 -7 4 -10 35 -9 50 2 76 15 30 15 -23 0 -26 2 -15 15 7 8 19 15 27
15 10 0 13 6 9 16 -3 9 -6 20 -6 25 0 5 -4 9 -10 9 -5 0 -10 -9 -10 -20z"/>
<path d="M7090 2949 c0 -5 5 -7 10 -4 6 3 10 8 10 11 0 2 -4 4 -10 4 -5 0 -10
-5 -10 -11z"/>
<path d="M750 2910 c0 -5 5 -10 10 -10 6 0 10 5 10 10 0 6 -4 10 -10 10 -5 0
-10 -4 -10 -10z"/>
<path d="M643 2830 c2 -24 4 -24 23 -6 19 20 18 26 -5 26 -14 0 -19 -6 -18
-20z"/>
<path d="M570 2810 c0 -5 -7 -6 -17 -3 -10 4 -14 2 -9 -5 9 -15 45 -11 39 5
-6 15 -13 17 -13 3z"/>
<path d="M536 2771 c-4 -5 -2 -12 3 -15 5 -4 12 -2 15 3 4 5 2 12 -3 15 -5 4
-12 2 -15 -3z"/>
<path d="M595 2770 c3 -5 8 -10 11 -10 2 0 4 5 4 10 0 6 -5 10 -11 10 -5 0 -7
-4 -4 -10z"/>
<path d="M0 2673 l0 -70 103 -22 c56 -13 133 -34 170 -47 89 -31 105 -31 113
4 9 35 47 116 64 137 10 12 10 15 -4 15 -9 0 -16 -7 -16 -15 0 -8 -8 -15 -17
-15 -32 0 -157 28 -221 49 -35 11 -92 24 -128 27 l-64 7 0 -70z"/>
<path d="M520 2719 c0 -5 5 -7 10 -4 6 3 10 8 10 11 0 2 -4 4 -10 4 -5 0 -10
-5 -10 -11z"/>
<path d="M583 2706 c-5 -8 -19 -19 -33 -25 -22 -9 -23 -10 -4 -10 11 -1 31 10
44 24 13 14 18 25 12 25 -6 0 -15 -6 -19 -14z"/>
<path d="M473 2671 c-11 -22 -22 -39 -24 -36 -2 2 -9 -7 -16 -21 -11 -23 -9
-22 25 6 20 17 42 30 49 30 7 0 13 5 13 10 0 6 -10 10 -21 10 -18 0 -19 2 -9
15 7 9 11 18 8 21 -3 3 -14 -13 -25 -35z"/>
<path d="M711 2654 c0 -11 3 -14 6 -6 3 7 2 16 -1 19 -3 4 -6 -2 -5 -13z"/>
<path d="M678 2643 c7 -3 16 -2 19 1 4 3 -2 6 -13 5 -11 0 -14 -3 -6 -6z"/>
<path d="M714 2594 c1 -29 12 -32 19 -5 3 11 -1 22 -8 25 -8 3 -12 -4 -11 -20z"/>
<path d="M7300 2603 c0 -13 7 -24 38 -58 18 -20 38 -20 22 0 -10 12 -8 16 14
25 39 14 32 26 -24 37 -41 8 -50 8 -50 -4z"/>
<path d="M560 2573 c0 -25 -1 -28 -16 -50 -18 -28 -14 -28 30 -2 39 23 41 27
25 49 -9 13 -10 13 -6 -2 3 -9 -1 -19 -9 -22 -8 -3 -13 -2 -10 2 2 4 1 14 -5
22 -6 10 -9 11 -9 3z"/>
<path d="M500 2556 c0 -8 4 -17 9 -21 6 -3 9 4 8 15 -1 23 -17 28 -17 6z"/>
<path d="M770 2560 c0 -5 5 -10 11 -10 5 0 7 5 4 10 -3 6 -8 10 -11 10 -2 0
-4 -4 -4 -10z"/>
<path d="M625 2550 c4 -6 11 -8 16 -5 14 9 11 15 -7 15 -8 0 -12 -5 -9 -10z"/>
<path d="M7368 2553 c7 -3 16 -2 19 1 4 3 -2 6 -13 5 -11 0 -14 -3 -6 -6z"/>
<path d="M720 2541 c0 -6 4 -13 10 -16 6 -3 7 1 4 9 -7 18 -14 21 -14 7z"/>
<path d="M661 2524 c0 -11 3 -14 6 -6 3 7 2 16 -1 19 -3 4 -6 -2 -5 -13z"/>
<path d="M75 2511 c-3 -5 -21 -7 -40 -4 l-35 6 0 -176 0 -175 49 -16 c28 -9
56 -16 63 -16 7 0 24 -6 39 -13 14 -8 46 -21 72 -30 l46 -16 11 37 c5 20 10
49 10 64 0 15 16 88 35 162 19 75 35 140 35 146 0 5 -22 10 -49 10 -28 0 -52
4 -55 9 -7 11 -59 1 -68 -13 -5 -8 -13 -8 -27 1 -10 6 -28 9 -40 6 -17 -4 -20
-2 -15 11 7 17 -20 23 -31 7z"/>
<path d="M479 2503 c-13 -15 -12 -15 9 -4 23 12 28 21 13 21 -5 0 -15 -7 -22
-17z"/>
<path d="M690 2483 c0 -4 5 -15 10 -23 8 -13 10 -13 10 2 0 9 -4 20 -10 23 -5
3 -10 3 -10 -2z"/>
<path d="M490 2469 c0 -5 -4 -7 -10 -4 -5 3 -10 2 -10 -3 0 -8 22 -22 36 -22
2 0 4 9 4 20 0 11 -4 20 -10 20 -5 0 -10 -5 -10 -11z"/>
<path d="M600 2464 c0 -8 5 -12 10 -9 6 4 8 11 5 16 -9 14 -15 11 -15 -7z"/>
<path d="M438 2443 c7 -3 16 -2 19 1 4 3 -2 6 -13 5 -11 0 -14 -3 -6 -6z"/>
<path d="M730 2414 c0 -10 -6 -14 -15 -10 -9 3 -15 0 -15 -9 0 -18 5 -18 31
-5 20 11 27 40 9 40 -5 0 -10 -7 -10 -16z"/>
<path d="M642 2411 c-11 -6 -10 -10 4 -15 20 -8 32 0 18 14 -5 5 -15 5 -22 1z"/>
<path d="M428 2383 c7 -3 16 -2 19 1 4 3 -2 6 -13 5 -11 0 -14 -3 -6 -6z"/>
<path d="M620 2380 c13 -9 13 -11 0 -21 -12 -8 -12 -10 5 -7 30 5 32 38 3 38
-19 0 -20 -2 -8 -10z"/>
<path d="M473 2373 c-7 -3 -13 -12 -13 -21 0 -15 2 -15 10 -2 6 10 10 11 10 3
0 -7 5 -13 10 -13 12 0 14 27 3 33 -5 2 -14 2 -20 0z"/>
</g>
</svg>
